<svg width="564" height="564" viewBox="0 0 564 564" fill="none" xmlns="http://www.w3.org/2000/svg">
<path d="M435.592 434.772C427.089 443.724 419.044 449.496 412.687 454.057C337.967 507.67 249.553 492.042 230.762 488.226C203.015 482.59 149.379 471.696 110.602 426.095C51.9343 357.103 61.0697 248.409 106.576 176.659C114.9 163.534 158.869 90.6911 248.235 79.0093C302.318 71.9395 365.362 86.1984 411.017 124.448C506.851 204.737 500.028 366.936 435.592 434.772Z" fill="url(#paint0_linear_37_1150)"/>
<path d="M218.699 307.945C213.278 283.051 200.254 262.374 183.767 249.369C169.029 237.744 159.192 220.9 156.69 202.296C156.427 200.341 156.082 198.372 155.651 196.395C149.131 166.456 125.546 146.17 102.973 151.086C80.3991 156.002 67.3851 184.258 73.9052 214.197C75.2383 220.32 77.2855 226.036 79.892 231.216C88.21 247.748 90.3032 266.817 85.0455 284.56C80.3467 300.417 79.5387 318.701 83.6031 337.365C89.665 365.201 105.232 387.766 124.518 400.226C131.812 404.939 138.228 410.951 143.353 417.962C151.87 429.613 164.802 435.949 177.476 433.189C191.147 430.212 200.691 417.483 202.743 401.758C203.905 392.859 206.8 384.306 210.965 376.358C220.8 357.593 224.181 333.114 218.699 307.945Z" fill="#BDD0FB"/>
<path opacity="0.57" d="M117.813 181.214C125.071 200.359 131.71 219.722 138.147 239.154C139.758 244.011 141.291 248.893 142.84 253.771L145.163 261.087L147.424 268.423C148.913 273.32 150.468 278.196 151.902 283.11L156.203 297.849C158.945 307.712 161.771 317.551 164.329 327.465C165.616 332.42 166.998 337.349 168.184 342.33L171.81 357.254C176.445 377.199 180.581 397.27 183.696 417.511L182.827 417.653L179.921 402.597L179.203 398.833L178.391 395.087L176.753 387.598L175.13 380.108C174.594 377.61 173.964 375.132 173.386 372.644C172.196 367.674 171.046 362.695 169.824 357.734C164.808 337.917 159.529 318.167 153.845 298.529C150.928 288.731 148.095 278.909 145.11 269.131L142.891 261.792L140.611 254.471C139.095 249.589 137.577 244.708 136.011 239.841C132.961 230.083 129.841 220.345 126.643 210.633C123.495 200.904 120.254 191.203 116.986 181.516L117.813 181.214Z" fill="white"/>
<path d="M127.21 304.485C119.126 274.609 121.623 245.019 132.163 221.761C141.584 200.97 142.784 177.298 135.067 155.839C134.256 153.584 133.526 151.267 132.884 148.895C123.162 112.964 137.296 77.8783 164.454 70.5297C191.612 63.1811 221.51 86.3523 231.232 122.284C233.22 129.631 234.209 136.942 234.293 143.987C234.561 166.47 242.98 188.202 258.604 204.385C272.566 218.847 283.682 238.107 289.743 260.506C298.782 293.913 294.592 326.963 280.723 351.203C275.476 360.372 271.908 370.447 270.295 380.878C267.614 398.212 257.182 412.288 241.935 416.414C225.486 420.865 208.039 412.489 197.011 396.686C190.771 387.743 182.85 380.144 173.894 373.908C152.751 359.188 135.383 334.692 127.21 304.485Z" fill="#91B3FA"/>
<path opacity="0.57" d="M165.287 111.327C168.165 136.034 171.834 160.629 175.76 185.185C176.739 191.325 177.817 197.448 178.874 203.574L180.462 212.764L182.127 221.94C183.26 228.053 184.31 234.182 185.513 240.282L189.12 258.583C191.68 270.753 194.137 282.944 196.924 295.066C198.309 301.128 199.575 307.217 201.083 313.252L205.523 331.373C211.685 355.473 218.457 379.429 226.427 402.996L227.446 402.662L222.154 384.803L220.822 380.342L219.602 375.848L217.177 366.857L214.736 357.872C213.917 354.879 213.209 351.854 212.441 348.847C210.943 342.823 209.398 336.811 207.939 330.777C202.262 306.602 196.905 282.352 192.049 257.994C189.714 245.797 187.275 233.62 185.025 221.406L183.312 212.25L181.676 203.08C180.582 196.967 179.487 190.854 178.455 184.73C176.285 172.5 174.203 160.253 172.221 147.99C170.174 135.738 168.243 123.463 166.35 111.188L165.287 111.327Z" fill="white"/>
<path d="M491.824 425.205H233.433C231.956 425.205 230.758 424.007 230.758 422.53V73.5273C230.758 72.0498 231.956 70.8521 233.433 70.8521H491.824C493.302 70.8521 494.499 72.0498 494.499 73.5273V422.53C494.499 424.007 493.302 425.205 491.824 425.205Z" fill="url(#paint1_linear_37_1150)"/>
<path d="M476.787 417.158H248.217C243.241 417.158 239.207 413.125 239.207 408.149V87.1862C239.207 82.2105 243.241 78.1768 248.217 78.1768H476.787C481.763 78.1768 485.796 82.2103 485.796 87.1862V408.149C485.796 413.125 481.763 417.158 476.787 417.158Z" fill="#7D97F4"/>
<path d="M262.977 107.285H253.25C252.967 107.285 252.738 107.055 252.738 106.773C252.738 106.49 252.967 106.26 253.25 106.26H262.977C263.26 106.26 263.489 106.49 263.489 106.773C263.489 107.055 263.26 107.285 262.977 107.285Z" fill="white"/>
<path d="M322.709 165.701H276.921C276.638 165.701 276.409 165.472 276.409 165.189V121.008C276.409 120.725 276.638 120.496 276.921 120.496H322.709C322.992 120.496 323.221 120.725 323.221 121.008V165.189C323.221 165.472 322.992 165.701 322.709 165.701ZM277.433 164.677H322.197V121.52H277.433V164.677Z" fill="white"/>
<path d="M309.866 121.427H252.985C252.702 121.427 252.473 121.198 252.473 120.915V89.8016C252.473 89.5188 252.702 89.2896 252.985 89.2896H309.866C310.149 89.2896 310.378 89.5188 310.378 89.8016V120.915C310.378 121.198 310.149 121.427 309.866 121.427ZM253.497 120.403H309.354V90.3136H253.497V120.403Z" fill="white"/>
<path d="M322.709 135.984L298.431 135.977C298.148 135.977 297.919 135.748 297.919 135.465C297.919 135.183 298.148 134.953 298.431 134.953L322.709 134.96C322.992 134.96 323.221 135.19 323.221 135.473C323.221 135.755 322.992 135.984 322.709 135.984Z" fill="white"/>
<path d="M298.301 147.217C298.018 147.217 297.789 146.987 297.789 146.705V125.715C297.789 125.432 298.018 125.203 298.301 125.203C298.584 125.203 298.813 125.432 298.813 125.715V146.705C298.813 146.987 298.584 147.217 298.301 147.217Z" fill="white"/>
<path d="M298.431 165.701C298.43 165.701 298.43 165.701 298.429 165.701C298.146 165.701 297.918 165.471 297.919 165.188L297.95 155.075C297.951 154.793 298.18 154.564 298.462 154.564C298.462 154.564 298.463 154.564 298.463 154.564C298.746 154.565 298.975 154.795 298.974 155.078L298.943 165.191C298.942 165.473 298.713 165.701 298.431 165.701Z" fill="white"/>
<path d="M272.265 121.393C272.264 121.393 272.263 121.393 272.262 121.393C271.98 121.392 271.752 121.162 271.753 120.879L271.811 107.675C271.813 107.393 272.042 107.165 272.323 107.165C272.324 107.165 272.325 107.165 272.326 107.165C272.608 107.166 272.836 107.397 272.835 107.679L272.777 120.883C272.775 121.165 272.546 121.393 272.265 121.393Z" fill="white"/>
<path d="M272.265 102.375C272.264 102.375 272.263 102.375 272.262 102.375C271.98 102.374 271.751 102.143 271.753 101.861L271.811 89.7448C271.813 89.4628 272.042 89.2354 272.323 89.2354C272.324 89.2354 272.325 89.2354 272.326 89.2354C272.608 89.2366 272.837 89.467 272.835 89.7498L272.777 101.866C272.775 102.148 272.546 102.375 272.265 102.375Z" fill="white"/>
<path d="M299.325 155.92H296.765C296.482 155.92 296.253 155.691 296.253 155.408C296.253 155.125 296.482 154.896 296.765 154.896H299.325C299.608 154.896 299.837 155.125 299.837 155.408C299.837 155.691 299.608 155.92 299.325 155.92Z" fill="white"/>
<path d="M299.325 147.217H297.789C297.506 147.217 297.277 146.987 297.277 146.705C297.277 146.422 297.506 146.193 297.789 146.193H299.325C299.608 146.193 299.837 146.422 299.837 146.705C299.837 146.987 299.608 147.217 299.325 147.217Z" fill="white"/>
<path d="M299.325 126.227H297.789C297.506 126.227 297.277 125.997 297.277 125.715C297.277 125.432 297.506 125.203 297.789 125.203H299.325C299.608 125.203 299.837 125.432 299.837 125.715C299.837 125.998 299.608 126.227 299.325 126.227Z" fill="white"/>
<path d="M273.216 108.308H271.68C271.397 108.308 271.168 108.079 271.168 107.796C271.168 107.514 271.397 107.284 271.68 107.284H273.216C273.499 107.284 273.728 107.514 273.728 107.796C273.728 108.079 273.499 108.308 273.216 108.308Z" fill="white"/>
<path d="M273.216 102.165H271.68C271.397 102.165 271.168 101.936 271.168 101.653C271.168 101.37 271.397 101.141 271.68 101.141H273.216C273.499 101.141 273.728 101.37 273.728 101.653C273.728 101.936 273.499 102.165 273.216 102.165Z" fill="white"/>
<path d="M276.799 165.647H253.864C253.586 165.647 253.358 165.424 253.352 165.145L252.412 120.871C252.406 120.588 252.631 120.354 252.913 120.348C252.917 120.348 252.92 120.348 252.924 120.348C253.202 120.348 253.43 120.57 253.436 120.849L254.365 164.623H276.799C277.082 164.623 277.311 164.852 277.311 165.135C277.311 165.418 277.082 165.647 276.799 165.647Z" fill="white"/>
<path d="M333.114 182.541H322.875C322.592 182.541 322.363 182.312 322.363 182.029C322.363 181.746 322.592 181.517 322.875 181.517H333.114C333.397 181.517 333.626 181.746 333.626 182.029C333.626 182.312 333.397 182.541 333.114 182.541Z" fill="white"/>
<path d="M392.709 240.473H346.921C346.638 240.473 346.409 240.244 346.409 239.961V195.78C346.409 195.498 346.638 195.268 346.921 195.268H392.709C392.992 195.268 393.221 195.498 393.221 195.78V239.961C393.221 240.244 392.992 240.473 392.709 240.473ZM347.433 239.449H392.197V196.292H347.433V239.449Z" fill="white"/>
<path d="M379.865 196.199H322.985C322.702 196.199 322.473 195.969 322.473 195.687V164.574C322.473 164.291 322.702 164.062 322.985 164.062H379.865C380.148 164.062 380.377 164.291 380.377 164.574V195.687C380.377 195.969 380.148 196.199 379.865 196.199ZM323.497 195.175H379.353V165.086H323.497V195.175Z" fill="white"/>
<path d="M392.709 210.756L368.43 210.75C368.147 210.75 367.918 210.52 367.918 210.238C367.918 209.955 368.148 209.726 368.43 209.726L392.709 209.733C392.992 209.733 393.221 209.962 393.221 210.245C393.221 210.527 392.991 210.756 392.709 210.756Z" fill="white"/>
<path d="M367.926 221.961C367.643 221.961 367.414 221.732 367.414 221.449V200.459C367.414 200.177 367.643 199.947 367.926 199.947C368.209 199.947 368.438 200.177 368.438 200.459V221.449C368.438 221.732 368.209 221.961 367.926 221.961Z" fill="white"/>
<path d="M368.43 240.474C368.429 240.474 368.429 240.474 368.428 240.474C368.145 240.473 367.917 240.243 367.918 239.96L367.949 229.847C367.95 229.565 368.179 229.337 368.461 229.337C368.462 229.337 368.462 229.337 368.463 229.337C368.746 229.338 368.974 229.568 368.973 229.85L368.942 239.963C368.941 240.245 368.712 240.474 368.43 240.474Z" fill="white"/>
<path d="M342.264 196.165C342.264 196.165 342.263 196.165 342.262 196.165C341.979 196.164 341.751 195.934 341.752 195.651L341.811 182.447C341.812 182.165 342.041 181.937 342.323 181.937C342.323 181.937 342.324 181.937 342.324 181.937C342.607 181.938 342.835 182.169 342.834 182.451L342.776 195.655C342.775 195.937 342.546 196.165 342.264 196.165Z" fill="white"/>
<path d="M342.264 177.147C342.263 177.147 342.263 177.147 342.262 177.147C341.979 177.146 341.751 176.916 341.752 176.633L341.811 164.517C341.812 164.236 342.041 164.008 342.323 164.008C342.324 164.008 342.324 164.008 342.325 164.008C342.607 164.009 342.836 164.239 342.834 164.522L342.776 176.638C342.775 176.919 342.546 177.147 342.264 177.147Z" fill="white"/>
<path d="M368.95 230.664H366.902C366.62 230.664 366.391 230.435 366.391 230.152C366.391 229.87 366.62 229.64 366.902 229.64H368.95C369.233 229.64 369.462 229.87 369.462 230.152C369.462 230.435 369.233 230.664 368.95 230.664Z" fill="white"/>
<path d="M368.95 221.961H367.414C367.131 221.961 366.902 221.732 366.902 221.449C366.902 221.167 367.131 220.937 367.414 220.937H368.95C369.233 220.937 369.462 221.167 369.462 221.449C369.462 221.732 369.233 221.961 368.95 221.961Z" fill="white"/>
<path d="M368.95 200.971H367.414C367.131 200.971 366.902 200.742 366.902 200.459C366.902 200.177 367.131 199.947 367.414 199.947H368.95C369.233 199.947 369.462 200.177 369.462 200.459C369.462 200.742 369.233 200.971 368.95 200.971Z" fill="white"/>
<path d="M343.353 183.053H341.305C341.022 183.053 340.793 182.824 340.793 182.541C340.793 182.258 341.022 182.029 341.305 182.029H343.353C343.636 182.029 343.865 182.258 343.865 182.541C343.865 182.824 343.636 183.053 343.353 183.053Z" fill="white"/>
<path d="M343.353 176.91H341.305C341.022 176.91 340.793 176.68 340.793 176.398C340.793 176.115 341.022 175.886 341.305 175.886H343.353C343.636 175.886 343.865 176.115 343.865 176.398C343.865 176.68 343.636 176.91 343.353 176.91Z" fill="white"/>
<path d="M346.936 240.391H323.864C323.585 240.391 323.357 240.168 323.352 239.89L322.48 195.615C322.475 195.332 322.699 195.099 322.982 195.093C322.986 195.093 322.989 195.093 322.992 195.093C323.271 195.093 323.499 195.316 323.504 195.595L324.366 239.368H346.936C347.219 239.368 347.448 239.597 347.448 239.88C347.448 240.162 347.219 240.391 346.936 240.391Z" fill="white"/>
<path d="M340.108 165.109C339.826 165.109 339.597 164.881 339.596 164.599L339.553 154.524C339.552 154.241 339.78 154.011 340.062 154.01C340.063 154.01 340.064 154.01 340.064 154.01C340.346 154.01 340.575 154.237 340.576 154.519L340.62 164.595C340.62 164.878 340.393 165.108 340.11 165.109C340.109 165.109 340.108 165.109 340.108 165.109Z" fill="white"/>
<path d="M353.987 141.123C353.705 141.123 353.476 140.895 353.475 140.613L353.279 94.8254C353.278 94.6896 353.332 94.5592 353.427 94.4627C353.523 94.3661 353.653 94.3117 353.789 94.3113L397.97 94.1218C397.97 94.1218 397.971 94.1218 397.971 94.1218C398.253 94.1218 398.482 94.3496 398.483 94.6316L398.68 140.419C398.68 140.555 398.627 140.685 398.531 140.782C398.436 140.878 398.306 140.933 398.17 140.933L353.989 141.123C353.989 141.123 353.988 141.123 353.987 141.123ZM354.305 95.3328L354.497 140.097L397.654 139.912L397.461 95.1478L354.305 95.3328Z" fill="white"/>
<path d="M322.892 165.193C322.757 165.193 322.627 165.139 322.531 165.044C322.435 164.949 322.38 164.819 322.38 164.683L322.193 121.153C322.192 120.871 322.42 120.641 322.703 120.639L353.816 120.506C353.816 120.506 353.818 120.506 353.818 120.506C353.953 120.506 354.082 120.559 354.178 120.654C354.275 120.75 354.329 120.88 354.33 121.016L354.516 164.545C354.517 164.828 354.29 165.058 354.007 165.059L322.894 165.193C322.893 165.193 322.892 165.193 322.892 165.193ZM323.219 121.661L323.402 164.166L353.491 164.037L353.308 121.532L323.219 121.661Z" fill="white"/>
<path d="M368.352 119.552C368.07 119.552 367.841 119.324 367.84 119.042L367.743 94.763C367.742 94.4803 367.97 94.2504 368.253 94.249C368.253 94.249 368.254 94.249 368.255 94.249C368.537 94.249 368.766 94.4768 368.767 94.7591L368.864 119.038C368.865 119.321 368.637 119.551 368.354 119.552C368.354 119.552 368.353 119.552 368.352 119.552Z" fill="white"/>
<path d="M358.475 119.954C358.193 119.954 357.964 119.727 357.963 119.445C357.962 119.162 358.19 118.932 358.473 118.93L379.684 118.839C379.684 118.839 379.686 118.839 379.686 118.839C379.968 118.839 380.197 119.067 380.198 119.349C380.199 119.632 379.971 119.862 379.688 119.863L358.477 119.954C358.476 119.954 358.475 119.954 358.475 119.954Z" fill="white"/>
<path d="M387.963 119.437C387.68 119.437 387.451 119.208 387.451 118.925C387.45 118.642 387.679 118.413 387.962 118.413L398.075 118.401H398.076C398.358 118.401 398.587 118.629 398.588 118.912C398.588 119.195 398.359 119.424 398.076 119.424L387.963 119.437H387.963Z" fill="white"/>
<path d="M353.88 145.78L340.676 145.778C340.393 145.778 340.164 145.549 340.164 145.266C340.164 144.984 340.394 144.754 340.676 144.754L353.88 144.756C354.163 144.756 354.392 144.985 354.392 145.268C354.392 145.551 354.162 145.78 353.88 145.78Z" fill="white"/>
<path d="M334.862 145.861C334.862 145.861 334.862 145.861 334.862 145.861L322.746 145.855C322.463 145.855 322.234 145.626 322.234 145.343C322.234 145.06 322.464 144.831 322.746 144.831C322.746 144.831 322.746 144.831 322.747 144.831L334.863 144.837C335.145 144.838 335.374 145.067 335.374 145.349C335.374 145.632 335.145 145.861 334.862 145.861Z" fill="white"/>
<path d="M388.176 120.888C387.894 120.888 387.666 120.66 387.664 120.378L387.654 118.257C387.653 117.974 387.881 117.744 388.164 117.742C388.165 117.742 388.166 117.742 388.166 117.742C388.448 117.742 388.677 117.97 388.678 118.252L388.688 120.373C388.689 120.656 388.461 120.886 388.178 120.888C388.177 120.888 388.176 120.888 388.176 120.888Z" fill="white"/>
<path d="M379.689 120.394C379.407 120.394 379.178 120.166 379.177 119.884L379.17 118.293C379.169 118.01 379.397 117.78 379.679 117.779C379.68 117.779 379.681 117.779 379.682 117.779C379.964 117.779 380.193 118.007 380.194 118.289L380.201 119.879C380.202 120.162 379.974 120.392 379.691 120.394C379.69 120.394 379.689 120.394 379.689 120.394Z" fill="white"/>
<path d="M358.477 120.484C358.195 120.484 357.966 120.257 357.965 119.975L357.958 118.384C357.957 118.101 358.185 117.871 358.468 117.87C358.469 117.87 358.47 117.87 358.47 117.87C358.752 117.87 358.981 118.097 358.982 118.38L358.989 119.97C358.99 120.253 358.762 120.483 358.479 120.484C358.478 120.484 358.477 120.484 358.477 120.484Z" fill="white"/>
<path d="M340.559 146.546C340.277 146.546 340.048 146.318 340.047 146.036L340.04 144.446C340.038 144.163 340.267 143.933 340.549 143.931C340.55 143.931 340.551 143.931 340.552 143.931C340.834 143.931 341.063 144.159 341.063 144.441L341.07 146.032C341.071 146.315 340.843 146.545 340.561 146.546C340.56 146.546 340.559 146.546 340.559 146.546Z" fill="white"/>
<path d="M334.725 146.571C334.443 146.571 334.214 146.344 334.213 146.062L334.206 144.471C334.205 144.188 334.433 143.958 334.716 143.957C334.717 143.957 334.718 143.957 334.718 143.957C335 143.957 335.229 144.184 335.23 144.466L335.237 146.057C335.238 146.34 335.01 146.57 334.728 146.571C334.727 146.571 334.726 146.571 334.725 146.571Z" fill="white"/>
<path d="M354.166 165.09C353.889 165.09 353.661 164.869 353.654 164.591C353.647 164.308 353.871 164.073 354.154 164.066L397.922 162.978L397.826 140.486C397.825 140.203 398.053 139.973 398.336 139.972C398.336 139.972 398.337 139.972 398.338 139.972C398.62 139.972 398.849 140.199 398.85 140.481L398.948 163.476C398.949 163.754 398.728 163.983 398.449 163.99L354.179 165.09C354.175 165.09 354.17 165.09 354.166 165.09Z" fill="white"/>
<path d="M309.866 95.7919C309.585 95.7919 309.357 95.5661 309.354 95.2852C309.351 95.0024 309.578 94.771 309.86 94.768L353.785 94.311C353.787 94.311 353.789 94.311 353.791 94.311C354.071 94.311 354.3 94.5368 354.303 94.8177C354.306 95.1005 354.079 95.3319 353.796 95.3349L309.871 95.7919C309.869 95.7919 309.867 95.7919 309.866 95.7919Z" fill="white"/>
<path d="M264.805 240.027C264.523 240.027 264.294 239.8 264.293 239.517L264.25 228.886C264.249 228.604 264.477 228.374 264.76 228.372C264.76 228.372 264.761 228.372 264.762 228.372C265.044 228.372 265.273 228.6 265.274 228.882L265.317 239.513C265.318 239.796 265.09 240.026 264.807 240.027C264.806 240.027 264.805 240.027 264.805 240.027Z" fill="white"/>
<path d="M278.685 214.719C278.55 214.719 278.42 214.665 278.324 214.57C278.228 214.475 278.173 214.345 278.173 214.208L277.976 165.896C277.975 165.613 278.203 165.383 278.486 165.382L322.666 165.182C322.788 165.177 322.932 165.234 323.029 165.33C323.126 165.426 323.18 165.556 323.181 165.692L323.377 214.005C323.378 214.287 323.15 214.517 322.868 214.519L278.687 214.719C278.686 214.718 278.686 214.719 278.685 214.719ZM279.002 166.403L279.194 213.692L322.351 213.497L322.159 166.208L279.002 166.403Z" fill="white"/>
<path d="M247.581 240.116C247.446 240.116 247.317 240.062 247.221 239.967C247.124 239.872 247.07 239.742 247.069 239.606L246.825 179.589C246.824 179.306 247.052 179.076 247.335 179.075L278.447 178.934C278.593 178.945 278.714 178.987 278.81 179.083C278.907 179.178 278.961 179.308 278.962 179.444L279.206 239.461C279.207 239.743 278.979 239.974 278.696 239.975L247.584 240.116C247.583 240.116 247.582 240.116 247.581 240.116ZM247.851 180.097L248.091 239.089L278.18 238.953L277.94 179.96L247.851 180.097Z" fill="white"/>
<path d="M293.05 191.958C292.768 191.958 292.539 191.73 292.538 191.448L292.44 165.83C292.439 165.547 292.668 165.317 292.95 165.316C292.951 165.316 292.952 165.316 292.952 165.316C293.234 165.316 293.463 165.544 293.464 165.826L293.562 191.444C293.563 191.727 293.334 191.957 293.052 191.958C293.051 191.958 293.05 191.958 293.05 191.958Z" fill="white"/>
<path d="M283.172 192.382C282.89 192.382 282.662 192.155 282.66 191.873C282.659 191.59 282.887 191.36 283.17 191.359L304.381 191.262C304.383 191.262 304.383 191.262 304.384 191.262C304.666 191.262 304.894 191.49 304.896 191.772C304.897 192.055 304.669 192.285 304.386 192.286L283.175 192.382C283.174 192.382 283.173 192.382 283.172 192.382Z" fill="white"/>
<path d="M312.66 191.836C312.378 191.836 312.149 191.607 312.148 191.325C312.148 191.042 312.377 190.812 312.66 190.812L322.773 190.8H322.773C323.056 190.8 323.285 191.028 323.285 191.311C323.285 191.594 323.056 191.823 322.774 191.823L312.661 191.836H312.66Z" fill="white"/>
<path d="M278.578 219.632L265.373 219.631C265.091 219.631 264.861 219.401 264.861 219.119C264.861 218.836 265.091 218.607 265.373 218.607L278.578 218.608C278.861 218.608 279.09 218.837 279.09 219.12C279.09 219.403 278.86 219.632 278.578 219.632Z" fill="white"/>
<path d="M259.56 219.718C259.56 219.718 259.56 219.718 259.559 219.718L247.444 219.712C247.161 219.711 246.932 219.482 246.932 219.199C246.932 218.917 247.162 218.688 247.444 218.688C247.444 218.688 247.444 218.688 247.445 218.688L259.56 218.694C259.843 218.695 260.072 218.924 260.072 219.206C260.072 219.489 259.842 219.718 259.56 219.718Z" fill="white"/>
<path d="M312.873 193.367C312.591 193.367 312.362 193.139 312.361 192.857L312.352 190.619C312.351 190.336 312.579 190.106 312.862 190.105C312.863 190.105 312.864 190.105 312.864 190.105C313.146 190.105 313.375 190.333 313.376 190.615L313.385 192.853C313.386 193.136 313.158 193.366 312.875 193.367C312.875 193.367 312.874 193.367 312.873 193.367Z" fill="white"/>
<path d="M304.386 192.846C304.104 192.846 303.875 192.618 303.874 192.336L303.867 190.658C303.866 190.375 304.094 190.145 304.377 190.144C304.377 190.144 304.378 190.144 304.379 190.144C304.661 190.144 304.89 190.371 304.891 190.653L304.898 192.332C304.899 192.615 304.671 192.845 304.388 192.846C304.388 192.846 304.387 192.846 304.386 192.846Z" fill="white"/>
<path d="M283.174 192.942C282.892 192.942 282.663 192.714 282.662 192.432L282.656 190.754C282.655 190.471 282.883 190.241 283.166 190.24C283.166 190.24 283.167 190.24 283.168 190.24C283.45 190.24 283.678 190.468 283.68 190.749L283.686 192.428C283.687 192.711 283.459 192.941 283.176 192.942C283.176 192.942 283.175 192.942 283.174 192.942Z" fill="white"/>
<path d="M265.256 220.441C264.974 220.441 264.745 220.213 264.744 219.931L264.737 218.253C264.736 217.97 264.964 217.74 265.247 217.739C265.247 217.739 265.248 217.739 265.249 217.739C265.531 217.739 265.76 217.966 265.761 218.248L265.768 219.927C265.769 220.21 265.541 220.44 265.258 220.441C265.257 220.441 265.256 220.441 265.256 220.441Z" fill="white"/>
<path d="M259.423 220.467C259.141 220.467 258.912 220.239 258.911 219.958L258.904 218.279C258.903 217.996 259.131 217.766 259.414 217.765C259.414 217.765 259.415 217.765 259.416 217.765C259.698 217.765 259.927 217.993 259.928 218.275L259.934 219.953C259.936 220.236 259.707 220.466 259.425 220.467C259.424 220.467 259.423 220.467 259.423 220.467Z" fill="white"/>
<path d="M278.863 240.008C278.587 240.008 278.359 239.787 278.352 239.509C278.345 239.226 278.568 238.991 278.85 238.984L322.62 237.836L322.523 214.074C322.522 213.791 322.75 213.561 323.033 213.56C323.034 213.56 323.035 213.56 323.035 213.56C323.317 213.56 323.546 213.788 323.547 214.07L323.646 238.333C323.647 238.611 323.425 238.839 323.147 238.846L278.877 240.007C278.873 240.008 278.868 240.008 278.863 240.008Z" fill="white"/>
<path d="M478.902 214.833H420.57C420.287 214.833 420.058 214.604 420.058 214.321V88.1565C420.058 87.8738 420.287 87.6445 420.57 87.6445H478.902C479.185 87.6445 479.414 87.8738 479.414 88.1565V214.321C479.414 214.604 479.185 214.833 478.902 214.833ZM421.082 213.809H478.39V88.6684H421.082V213.809Z" fill="white"/>
<path d="M478.902 97.9924H420.57C420.287 97.9924 420.058 97.7631 420.058 97.4804V88.1563C420.058 87.8735 420.287 87.6443 420.57 87.6443H478.902C479.185 87.6443 479.414 87.8735 479.414 88.1563V97.4804C479.414 97.7633 479.185 97.9924 478.902 97.9924ZM421.082 96.9685H478.39V88.6683H421.082V96.9685Z" fill="white"/>
<path d="M455.22 214.328H443.789C443.506 214.328 443.277 214.099 443.277 213.816V187.648C443.277 187.365 443.506 187.135 443.789 187.135H455.22C455.503 187.135 455.732 187.365 455.732 187.648V213.816C455.732 214.099 455.503 214.328 455.22 214.328ZM444.301 213.304H454.708V188.16H444.301V213.304Z" fill="white"/>
<path d="M478.671 186.413H420.338V187.485H478.671V186.413Z" fill="white"/>
<path d="M478.571 157.772H420.238V158.845H478.571V157.772Z" fill="white"/>
<path d="M437.009 208.039H426.8C426.659 208.039 426.544 207.924 426.544 207.783V191.741C426.544 191.6 426.659 191.485 426.8 191.485H437.009C437.151 191.485 437.265 191.6 437.265 191.741V207.783C437.265 207.924 437.151 208.039 437.009 208.039ZM427.056 207.527H436.753V191.997H427.056V207.527Z" fill="white"/>
<path d="M431.904 208.038C431.904 208.038 431.904 208.038 431.904 208.038C431.762 208.038 431.648 207.923 431.649 207.781C431.649 207.635 431.714 193.188 431.649 191.753C431.642 191.611 431.751 191.492 431.893 191.485C432.054 191.477 432.154 191.588 432.16 191.729C432.227 193.177 432.163 207.188 432.16 207.784C432.16 207.925 432.045 208.038 431.904 208.038Z" fill="white"/>
<path d="M436.479 180.463H426.27C426.129 180.463 426.014 180.349 426.014 180.207V164.165C426.014 164.024 426.129 163.909 426.27 163.909H436.479C436.62 163.909 436.735 164.024 436.735 164.165V180.207C436.734 180.349 436.62 180.463 436.479 180.463ZM426.526 179.951H436.223V164.421H426.526V179.951Z" fill="white"/>
<path d="M431.375 180.463C431.374 180.463 431.373 180.463 431.373 180.463C431.232 180.462 431.118 180.347 431.119 180.206C431.119 180.06 431.183 165.612 431.119 164.177C431.112 164.035 431.221 163.916 431.363 163.909C431.521 163.895 431.624 164.013 431.63 164.154C431.696 165.602 431.633 179.613 431.63 180.208C431.63 180.349 431.516 180.463 431.375 180.463Z" fill="white"/>
<path d="M472.008 180.463H461.8C461.658 180.463 461.544 180.349 461.544 180.207V164.165C461.544 164.024 461.658 163.909 461.8 163.909H472.008C472.15 163.909 472.265 164.024 472.265 164.165V180.207C472.265 180.349 472.15 180.463 472.008 180.463ZM462.056 179.951H471.753V164.421H462.056V179.951Z" fill="white"/>
<path d="M466.905 180.463C466.904 180.463 466.904 180.463 466.904 180.463C466.762 180.462 466.648 180.347 466.649 180.206C466.649 180.06 466.713 165.612 466.649 164.177C466.642 164.035 466.751 163.916 466.893 163.909C467.058 163.895 467.154 164.013 467.16 164.154C467.226 165.602 467.163 179.613 467.16 180.208C467.16 180.349 467.045 180.463 466.905 180.463Z" fill="white"/>
<path d="M454.509 180.463H444.3C444.159 180.463 444.044 180.349 444.044 180.207V164.165C444.044 164.024 444.159 163.909 444.3 163.909H454.509C454.65 163.909 454.765 164.024 454.765 164.165V180.207C454.765 180.349 454.65 180.463 454.509 180.463ZM444.556 179.951H454.253V164.421H444.556V179.951Z" fill="white"/>
<path d="M449.405 180.463C449.404 180.463 449.404 180.463 449.404 180.463C449.262 180.462 449.148 180.347 449.149 180.206C449.149 180.06 449.214 165.612 449.149 164.177C449.143 164.035 449.252 163.916 449.393 163.909C449.54 163.895 449.654 164.013 449.66 164.154C449.726 165.602 449.663 179.613 449.661 180.208C449.66 180.349 449.546 180.463 449.405 180.463Z" fill="white"/>
<path d="M478.571 129.136H420.238V130.208H478.571V129.136Z" fill="white"/>
<path d="M436.479 152.357H426.27C426.129 152.357 426.014 152.243 426.014 152.101V136.06C426.014 135.918 426.129 135.804 426.27 135.804H436.479C436.62 135.804 436.735 135.918 436.735 136.06V152.101C436.734 152.243 436.62 152.357 436.479 152.357ZM426.526 151.845H436.223V136.316H426.526V151.845Z" fill="white"/>
<path d="M431.375 152.357C431.374 152.357 431.373 152.357 431.373 152.357C431.232 152.356 431.118 152.241 431.119 152.1C431.119 151.954 431.183 137.507 431.119 136.071C431.112 135.93 431.221 135.811 431.363 135.804C431.521 135.788 431.624 135.907 431.63 136.048C431.696 137.496 431.633 151.507 431.63 152.102C431.63 152.243 431.516 152.357 431.375 152.357Z" fill="white"/>
<path d="M472.008 152.357H461.8C461.658 152.357 461.544 152.243 461.544 152.101V136.06C461.544 135.918 461.658 135.804 461.8 135.804H472.008C472.15 135.804 472.265 135.918 472.265 136.06V152.101C472.265 152.243 472.15 152.357 472.008 152.357ZM462.056 151.845H471.753V136.316H462.056V151.845Z" fill="white"/>
<path d="M466.905 152.357C466.904 152.357 466.904 152.357 466.904 152.357C466.762 152.356 466.648 152.241 466.649 152.1C466.649 151.954 466.713 137.507 466.649 136.071C466.642 135.93 466.751 135.811 466.893 135.804C467.058 135.788 467.154 135.907 467.16 136.048C467.226 137.496 467.163 151.507 467.16 152.102C467.16 152.243 467.045 152.357 466.905 152.357Z" fill="white"/>
<path d="M454.509 151.827H444.3C444.159 151.827 444.044 151.713 444.044 151.571V135.529C444.044 135.388 444.159 135.273 444.3 135.273H454.509C454.65 135.273 454.765 135.388 454.765 135.529V151.571C454.765 151.713 454.65 151.827 454.509 151.827ZM444.556 151.315H454.253V135.785H444.556V151.315Z" fill="white"/>
<path d="M449.405 151.827C449.404 151.827 449.404 151.827 449.404 151.827C449.262 151.826 449.148 151.711 449.149 151.57C449.149 151.424 449.214 136.976 449.149 135.541C449.143 135.4 449.252 135.28 449.393 135.274C449.54 135.258 449.654 135.377 449.66 135.518C449.726 136.966 449.663 150.977 449.661 151.572C449.66 151.713 449.546 151.827 449.405 151.827Z" fill="white"/>
<path d="M478.571 100.5H420.238V101.572H478.571V100.5Z" fill="white"/>
<path d="M436.479 123.191H426.27C426.129 123.191 426.014 123.077 426.014 122.935V106.894C426.014 106.752 426.129 106.638 426.27 106.638H436.479C436.62 106.638 436.735 106.752 436.735 106.894V122.935C436.734 123.077 436.62 123.191 436.479 123.191ZM426.526 122.679H436.223V107.15H426.526V122.679Z" fill="white"/>
<path d="M431.375 123.191C431.374 123.191 431.373 123.191 431.373 123.191C431.232 123.19 431.118 123.075 431.119 122.934C431.119 122.788 431.183 108.34 431.119 106.905C431.112 106.764 431.221 106.644 431.363 106.638C431.521 106.621 431.624 106.741 431.63 106.882C431.696 108.33 431.633 122.34 431.63 122.936C431.63 123.077 431.516 123.191 431.375 123.191Z" fill="white"/>
<path d="M472.008 123.191H461.8C461.658 123.191 461.544 123.077 461.544 122.935V106.894C461.544 106.752 461.658 106.638 461.8 106.638H472.008C472.15 106.638 472.265 106.752 472.265 106.894V122.935C472.265 123.077 472.15 123.191 472.008 123.191ZM462.056 122.679H471.753V107.15H462.056V122.679Z" fill="white"/>
<path d="M466.905 123.191C466.904 123.191 466.904 123.191 466.904 123.191C466.762 123.19 466.648 123.075 466.649 122.934C466.649 122.788 466.713 108.34 466.649 106.905C466.642 106.764 466.751 106.644 466.893 106.638C467.058 106.621 467.154 106.741 467.16 106.882C467.226 108.33 467.163 122.34 467.16 122.936C467.16 123.077 467.045 123.191 466.905 123.191Z" fill="white"/>
<path d="M454.509 123.191H444.3C444.159 123.191 444.044 123.077 444.044 122.935V106.894C444.044 106.752 444.159 106.638 444.3 106.638H454.509C454.65 106.638 454.765 106.752 454.765 106.894V122.935C454.765 123.077 454.65 123.191 454.509 123.191ZM444.556 122.679H454.253V107.15H444.556V122.679Z" fill="white"/>
<path d="M449.405 123.191C449.404 123.191 449.404 123.191 449.404 123.191C449.262 123.19 449.148 123.075 449.149 122.934C449.149 122.788 449.214 108.34 449.149 106.905C449.143 106.764 449.252 106.644 449.393 106.638C449.54 106.621 449.654 106.741 449.66 106.882C449.726 108.33 449.663 122.34 449.661 122.936C449.66 123.077 449.546 123.191 449.405 123.191Z" fill="white"/>
<path d="M472.008 208.039H461.8C461.658 208.039 461.544 207.925 461.544 207.783V191.741C461.544 191.6 461.658 191.485 461.8 191.485H472.008C472.15 191.485 472.265 191.6 472.265 191.741V207.783C472.265 207.925 472.15 208.039 472.008 208.039ZM462.056 207.527H471.753V191.997H462.056V207.527Z" fill="white"/>
<path d="M466.905 208.039C466.904 208.039 466.904 208.039 466.904 208.039C466.762 208.038 466.648 207.923 466.649 207.781C466.649 207.636 466.713 193.188 466.649 191.752C466.642 191.611 466.751 191.492 466.893 191.485C467.058 191.472 467.154 191.588 467.16 191.729C467.226 193.178 467.163 207.188 467.16 207.784C467.16 207.925 467.045 208.039 466.905 208.039Z" fill="white"/>
<path d="M364.087 211.722L364.858 248.396L104.807 248.032C103.381 248.03 102.224 249.185 102.224 250.611V471.792H435.503V211.722H364.087Z" fill="url(#paint2_linear_37_1150)"/>
<path d="M178.829 479.67H97.1746C96.1713 479.67 95.3503 478.849 95.3503 477.845V445.64C95.3503 444.637 96.1713 443.816 97.1746 443.816H178.829C179.832 443.816 180.653 444.637 180.653 445.64V477.845C180.653 478.849 179.832 479.67 178.829 479.67Z" fill="url(#paint3_linear_37_1150)"/>
<path d="M266.605 479.67H184.951C183.947 479.67 183.126 478.849 183.126 477.845V445.64C183.126 444.637 183.947 443.816 184.951 443.816H266.605C267.608 443.816 268.429 444.637 268.429 445.64V477.845C268.429 478.849 267.608 479.67 266.605 479.67Z" fill="url(#paint4_linear_37_1150)"/>
<path d="M354.381 479.67H272.727C271.723 479.67 270.902 478.849 270.902 477.845V445.64C270.902 444.637 271.723 443.816 272.727 443.816H354.381C355.384 443.816 356.205 444.637 356.205 445.64V477.845C356.205 478.849 355.384 479.67 354.381 479.67Z" fill="url(#paint5_linear_37_1150)"/>
<path d="M442.343 479.164H360.689C359.686 479.164 358.865 478.343 358.865 477.34V445.135C358.865 444.132 359.686 443.311 360.689 443.311H442.343C443.347 443.311 444.168 444.132 444.168 445.135V477.34C444.168 478.343 443.347 479.164 442.343 479.164Z" fill="url(#paint6_linear_37_1150)"/>
<path d="M178.538 402.008H96.8843C95.881 402.008 95.0601 401.187 95.0601 400.184V367.979C95.0601 366.976 95.881 366.155 96.8843 366.155H178.538C179.542 366.155 180.363 366.976 180.363 367.979V400.184C180.363 401.187 179.542 402.008 178.538 402.008Z" fill="url(#paint7_linear_37_1150)"/>
<path d="M266.314 402.008H184.66C183.657 402.008 182.836 401.187 182.836 400.184V367.979C182.836 366.976 183.657 366.155 184.66 366.155H266.314C267.318 366.155 268.139 366.976 268.139 367.979V400.184C268.139 401.187 267.318 402.008 266.314 402.008Z" fill="url(#paint8_linear_37_1150)"/>
<path d="M354.091 402.008H272.437C271.433 402.008 270.612 401.187 270.612 400.184V367.979C270.612 366.976 271.433 366.155 272.437 366.155H354.091C355.094 366.155 355.915 366.976 355.915 367.979V400.184C355.915 401.187 355.094 402.008 354.091 402.008Z" fill="url(#paint9_linear_37_1150)"/>
<path d="M442.053 401.503H360.399C359.396 401.503 358.575 400.682 358.575 399.679V367.474C358.575 366.471 359.396 365.65 360.399 365.65H442.053C443.056 365.65 443.877 366.471 443.877 367.474V399.679C443.877 400.682 443.056 401.503 442.053 401.503Z" fill="url(#paint10_linear_37_1150)"/>
<path d="M216.539 440.935H134.885C133.881 440.935 133.061 440.114 133.061 439.11V406.906C133.061 405.902 133.881 405.081 134.885 405.081H216.539C217.542 405.081 218.363 405.902 218.363 406.906V439.11C218.363 440.114 217.542 440.935 216.539 440.935Z" fill="url(#paint11_linear_37_1150)"/>
<path d="M128.604 440.935H96.3987C95.3954 440.935 94.5745 440.114 94.5745 439.11V406.906C94.5745 405.902 95.3954 405.081 96.3987 405.081H128.604C129.607 405.081 130.428 405.902 130.428 406.906V439.11C130.428 440.114 129.607 440.935 128.604 440.935Z" fill="url(#paint12_linear_37_1150)"/>
<path d="M304.315 440.935H222.661C221.658 440.935 220.837 440.114 220.837 439.11V406.906C220.837 405.902 221.658 405.081 222.661 405.081H304.315C305.318 405.081 306.139 405.902 306.139 406.906V439.11C306.139 440.114 305.318 440.935 304.315 440.935Z" fill="url(#paint13_linear_37_1150)"/>
<path d="M392.091 440.935H310.437C309.434 440.935 308.613 440.114 308.613 439.11V406.906C308.613 405.902 309.434 405.081 310.437 405.081H392.091C393.094 405.081 393.915 405.902 393.915 406.906V439.11C393.915 440.114 393.094 440.935 392.091 440.935Z" fill="url(#paint14_linear_37_1150)"/>
<path d="M442.343 440.429H398.4C397.396 440.429 396.575 439.608 396.575 438.605V406.4C396.575 405.397 397.396 404.576 398.4 404.576H442.343C443.347 404.576 444.168 405.397 444.168 406.4V438.605C444.168 439.608 443.347 440.429 442.343 440.429Z" fill="url(#paint15_linear_37_1150)"/>
<path d="M179.141 324.686H97.4871C96.4838 324.686 95.6628 323.865 95.6628 322.862V290.657C95.6628 289.654 96.4838 288.833 97.4871 288.833H179.141C180.144 288.833 180.965 289.654 180.965 290.657V322.862C180.965 323.865 180.144 324.686 179.141 324.686Z" fill="url(#paint16_linear_37_1150)"/>
<path d="M266.917 324.686H185.263C184.26 324.686 183.439 323.865 183.439 322.862V290.657C183.439 289.654 184.26 288.833 185.263 288.833H266.917C267.921 288.833 268.742 289.654 268.742 290.657V322.862C268.742 323.865 267.921 324.686 266.917 324.686Z" fill="url(#paint17_linear_37_1150)"/>
<path d="M354.693 324.686H273.039C272.036 324.686 271.215 323.865 271.215 322.862V290.657C271.215 289.654 272.036 288.833 273.039 288.833H354.693C355.697 288.833 356.518 289.654 356.518 290.657V322.862C356.518 323.865 355.697 324.686 354.693 324.686Z" fill="url(#paint18_linear_37_1150)"/>
<path d="M442.656 324.181H361.002C359.999 324.181 359.178 323.36 359.178 322.357V290.152C359.178 289.148 359.999 288.327 361.002 288.327H442.656C443.659 288.327 444.48 289.148 444.48 290.152V322.357C444.48 323.36 443.659 324.181 442.656 324.181Z" fill="url(#paint19_linear_37_1150)"/>
<path d="M217.142 363.612H135.488C134.484 363.612 133.663 362.791 133.663 361.788V329.583C133.663 328.58 134.484 327.759 135.488 327.759H217.142C218.145 327.759 218.966 328.58 218.966 329.583V361.788C218.966 362.791 218.145 363.612 217.142 363.612Z" fill="url(#paint20_linear_37_1150)"/>
<path d="M129.207 363.612H97.0017C95.9984 363.612 95.1775 362.791 95.1775 361.788V329.583C95.1775 328.58 95.9984 327.759 97.0017 327.759H129.207C130.21 327.759 131.031 328.58 131.031 329.583V361.788C131.031 362.791 130.21 363.612 129.207 363.612Z" fill="url(#paint21_linear_37_1150)"/>
<path d="M304.918 363.612H223.264C222.261 363.612 221.44 362.791 221.44 361.788V329.583C221.44 328.58 222.261 327.759 223.264 327.759H304.918C305.921 327.759 306.742 328.58 306.742 329.583V361.788C306.742 362.791 305.921 363.612 304.918 363.612Z" fill="url(#paint22_linear_37_1150)"/>
<path d="M392.694 363.612H311.04C310.037 363.612 309.216 362.791 309.216 361.788V329.583C309.216 328.58 310.037 327.759 311.04 327.759H392.694C393.697 327.759 394.518 328.58 394.518 329.583V361.788C394.518 362.791 393.697 363.612 392.694 363.612Z" fill="url(#paint23_linear_37_1150)"/>
<path d="M442.946 363.107H399.002C397.999 363.107 397.178 362.286 397.178 361.283V329.078C397.178 328.075 397.999 327.254 399.002 327.254H442.946C443.95 327.254 444.771 328.075 444.771 329.078V361.283C444.771 362.286 443.95 363.107 442.946 363.107Z" fill="url(#paint24_linear_37_1150)"/>
<path d="M442.656 246.859H361.002C359.999 246.859 359.178 246.038 359.178 245.034V212.829C359.178 211.826 359.999 211.005 361.002 211.005H442.656C443.659 211.005 444.48 211.826 444.48 212.829V245.034C444.48 246.038 443.659 246.859 442.656 246.859Z" fill="url(#paint25_linear_37_1150)"/>
<path d="M217.142 286.29H135.488C134.484 286.29 133.663 285.469 133.663 284.466V252.261C133.663 251.258 134.484 250.437 135.488 250.437H217.142C218.145 250.437 218.966 251.258 218.966 252.261V284.466C218.966 285.469 218.145 286.29 217.142 286.29Z" fill="url(#paint26_linear_37_1150)"/>
<path d="M129.207 286.29H97.0017C95.9984 286.29 95.1775 285.469 95.1775 284.466V252.261C95.1775 251.258 95.9984 250.437 97.0017 250.437H129.207C130.21 250.437 131.031 251.258 131.031 252.261V284.466C131.031 285.469 130.21 286.29 129.207 286.29Z" fill="url(#paint27_linear_37_1150)"/>
<path d="M304.918 286.29H223.264C222.261 286.29 221.44 285.469 221.44 284.466V252.261C221.44 251.258 222.261 250.437 223.264 250.437H304.918C305.921 250.437 306.742 251.258 306.742 252.261V284.466C306.742 285.469 305.921 286.29 304.918 286.29Z" fill="url(#paint28_linear_37_1150)"/>
<path d="M392.694 286.29H311.04C310.037 286.29 309.216 285.469 309.216 284.466V252.261C309.216 251.258 310.037 250.437 311.04 250.437H392.694C393.697 250.437 394.518 251.258 394.518 252.261V284.466C394.518 285.469 393.697 286.29 392.694 286.29Z" fill="url(#paint29_linear_37_1150)"/>
<path d="M442.946 285.785H399.002C397.999 285.785 397.178 284.964 397.178 283.961V251.756C397.178 250.752 397.999 249.931 399.002 249.931H442.946C443.95 249.931 444.771 250.752 444.771 251.756V283.961C444.771 284.964 443.95 285.785 442.946 285.785Z" fill="url(#paint30_linear_37_1150)"/>
<path d="M262.698 181.372L270.593 161.352C271.159 159.916 272.181 158.705 273.502 157.905L289.984 147.925C290.951 147.339 292.115 147.173 293.208 147.464C294.301 147.755 295.229 148.479 295.777 149.468L297.953 153.399C299.042 155.364 298.373 157.838 296.443 158.988L286.257 165.052C281.505 167.882 278.184 172.603 277.127 178.032L273.054 198.96L265.79 193.094C262.308 190.282 261.056 185.535 262.698 181.372Z" fill="url(#paint31_linear_37_1150)"/>
<path d="M149.716 382.629L169.233 392.678L208.165 317.067L188.648 307.018L149.716 382.629Z" fill="url(#paint32_linear_37_1150)"/>
<path d="M202.111 320.877L272.308 215.712L256.839 205.386L185.779 312.916L202.111 320.877Z" fill="url(#paint33_linear_37_1150)"/>
<path d="M196.085 340.586C207.156 340.586 216.131 331.611 216.131 320.541C216.131 309.47 207.156 300.495 196.085 300.495C185.015 300.495 176.04 309.47 176.04 320.541C176.04 331.611 185.015 340.586 196.085 340.586Z" fill="url(#paint34_linear_37_1150)"/>
<path opacity="0.75" d="M206.446 326.407C209.686 320.685 207.674 313.42 201.952 310.181C196.23 306.941 188.965 308.953 185.725 314.675C182.485 320.397 184.498 327.662 190.22 330.902C195.942 334.142 203.207 332.129 206.446 326.407Z" fill="white"/>
<path d="M227.14 397.56H105.808V450.803H227.14V397.56Z" fill="url(#paint35_linear_37_1150)"/>
<path d="M256.833 465.511C256.833 449.754 244.059 436.98 228.302 436.98H99.0145C83.2573 436.98 70.4834 449.754 70.4834 465.511V466.299C70.4834 482.057 83.2572 494.83 99.0145 494.83H228.302C244.059 494.83 256.833 482.057 256.833 466.299V465.511Z" fill="url(#paint36_linear_37_1150)"/>
<path d="M79.7893 465.943C79.7893 478.51 91.1657 488.697 105.459 488.697H221.925C236.218 488.697 247.806 478.51 247.806 465.943V465.578C247.806 453.011 236.218 442.824 221.925 442.824H105.459C91.1657 442.824 79.7893 453.011 79.7893 465.578V465.943Z" fill="url(#paint37_linear_37_1150)"/>
<path d="M224.37 476.944C230.47 470.845 230.47 460.955 224.37 454.855C218.27 448.755 208.38 448.755 202.281 454.855C196.181 460.955 196.181 470.845 202.281 476.944C208.38 483.044 218.27 483.044 224.37 476.944Z" fill="#7D97F4"/>
<path d="M203.835 466.452C203.964 471.521 208.178 475.526 213.247 475.397C218.316 475.268 222.321 471.053 222.192 465.984C222.063 460.915 217.849 456.91 212.78 457.039C207.71 457.168 203.706 461.382 203.835 466.452Z" fill="#BDD0FB"/>
<path d="M176.245 476.944C182.345 470.844 182.345 460.955 176.245 454.855C170.145 448.755 160.255 448.755 154.156 454.855C148.056 460.955 148.056 470.844 154.156 476.944C160.255 483.044 170.145 483.044 176.245 476.944Z" fill="#7D97F4"/>
<path d="M155.709 466.452C155.838 471.521 160.052 475.526 165.122 475.397C170.191 475.268 174.196 471.053 174.067 465.984C173.938 460.915 169.723 456.91 164.654 457.039C159.585 457.168 155.58 461.382 155.709 466.452Z" fill="#BDD0FB"/>
<path d="M118.254 481.459C126.856 480.817 133.309 473.323 132.667 464.721C132.026 456.119 124.532 449.665 115.929 450.307C107.327 450.949 100.874 458.443 101.516 467.045C102.157 475.647 109.651 482.101 118.254 481.459Z" fill="#7D97F4"/>
<path d="M107.584 466.452C107.713 471.521 111.927 475.526 116.996 475.397C122.066 475.268 126.07 471.054 125.941 465.985C125.812 460.915 121.598 456.91 116.529 457.039C111.46 457.168 107.455 461.383 107.584 466.452Z" fill="#BDD0FB"/>
<path d="M240.451 420.686C240.451 426.009 236.135 430.325 230.811 430.325H102.648C97.3249 430.325 93.0093 426.009 93.0093 420.686V415.902C93.0093 410.579 97.3249 406.263 102.648 406.263H230.811C236.135 406.263 240.451 410.579 240.451 415.902V420.686Z" fill="url(#paint38_linear_37_1150)"/>
<path d="M125.382 380.666H205.59C218.647 380.666 229.231 391.417 229.231 404.215H101.741C101.741 391.417 112.325 380.666 125.382 380.666Z" fill="url(#paint39_linear_37_1150)"/>
<path d="M91.6095 420.598H240.207C240.907 420.598 241.473 420.785 241.473 420.086C241.473 419.386 240.907 419.574 240.207 419.574H91.6095C90.9099 419.574 90.343 419.386 90.343 420.086C90.343 420.785 90.9099 420.598 91.6095 420.598Z" fill="#BDD0FB"/>
<path opacity="0.75" d="M140.438 399.342C143.936 399.342 146.771 396.507 146.771 393.01C146.771 389.513 143.936 386.677 140.438 386.677C136.941 386.677 134.106 389.513 134.106 393.01C134.106 396.507 136.941 399.342 140.438 399.342Z" fill="white"/>
<path opacity="0.75" d="M122.708 399.342C126.205 399.342 129.04 396.507 129.04 393.01C129.04 389.513 126.205 386.677 122.708 386.677C119.211 386.677 116.376 389.513 116.376 393.01C116.376 396.507 119.211 399.342 122.708 399.342Z" fill="white"/>
<path d="M355.834 197.481H274.639C273.636 197.481 272.815 196.661 272.815 195.657V163.645C272.815 162.642 273.636 161.821 274.639 161.821H355.834C356.838 161.821 357.659 162.642 357.659 163.645V195.657C357.659 196.661 356.838 197.481 355.834 197.481Z" fill="url(#paint40_linear_37_1150)"/>
<path d="M292.319 218.388L313.582 215.074C315.108 214.836 316.513 214.104 317.583 212.991L330.934 199.098C331.718 198.282 332.136 197.183 332.091 196.053C332.047 194.923 331.544 193.859 330.699 193.108L327.341 190.122C325.662 188.63 323.102 188.74 321.557 190.371L313.407 198.979C309.605 202.995 304.27 205.2 298.742 205.041L277.43 204.428L281.561 212.801C283.54 216.815 287.897 219.077 292.319 218.388Z" fill="url(#paint41_linear_37_1150)"/>
<path d="M273.126 221.412C282.274 221.412 289.69 213.996 289.69 204.849C289.69 195.701 282.274 188.285 273.126 188.285C263.979 188.285 256.563 195.701 256.563 204.849C256.563 213.996 263.979 221.412 273.126 221.412Z" fill="url(#paint42_linear_37_1150)"/>
<path opacity="0.75" d="M273.126 214.686C278.56 214.686 282.964 210.282 282.964 204.849C282.964 199.415 278.56 195.011 273.126 195.011C267.693 195.011 263.289 199.415 263.289 204.849C263.289 210.282 267.693 214.686 273.126 214.686Z" fill="white"/>
<path d="M435.17 475.449C435.17 475.449 436.051 480.432 436.482 485.366C436.651 487.294 435.164 488.968 433.23 489.049C426.661 489.322 412.608 489.854 407.565 489.629C406.807 489.595 406.311 488.819 406.592 488.114C406.827 487.523 407.28 487.046 407.858 486.78L431.071 476.112L435.17 475.449Z" fill="url(#paint43_linear_37_1150)"/>
<path d="M434.401 360.447C434.707 362.077 436.041 441.768 427.904 477.48C427.771 478.063 428.053 478.663 428.583 478.89C429.831 479.424 432.278 480.197 435.21 480.3C436.118 480.332 436.933 479.714 437.189 478.801C439.515 470.516 450.661 429.002 452.115 389.344C453.74 345.031 452.115 387.836 452.115 387.836L451.162 360.444L434.401 360.447Z" fill="url(#paint44_linear_37_1150)"/>
<path d="M460.914 478.049C460.914 478.049 462.316 480.565 463.672 487.25C463.917 488.458 463.074 489.613 461.848 489.734C459.678 489.947 456.339 490.221 453.664 490.203C452.43 490.194 451.468 489.121 451.616 487.896C451.913 485.456 452.836 481.452 455.688 478.332L460.914 478.049Z" fill="url(#paint45_linear_37_1150)"/>
<path d="M466.61 362.968C473.265 404.897 465.166 466.598 462.435 478.675C462.267 479.414 461.696 479.981 460.978 480.105C459.759 480.316 457.751 480.488 455.772 479.888C455.091 479.681 454.612 479.039 454.584 478.298C454.217 468.535 454.877 408.597 448.676 384.909C448.361 383.708 447.659 382.661 446.687 381.94L434.651 373.008L433.728 358.569L466.61 362.968Z" fill="url(#paint46_linear_37_1150)"/>
<path d="M424.201 286.676C444.146 286.346 466.154 291.913 466.154 291.913C472.099 326.603 467.193 366.616 467.193 366.616C451.752 370.665 434.334 364.14 434.334 364.14C431.767 349.64 419.793 308.833 419.793 308.833C410.048 307.624 419.736 325.044 413.125 321.327C418.168 315.481 398.351 312.834 399.383 308.437C408.659 293.036 418.049 286.778 424.201 286.676Z" fill="url(#paint47_linear_37_1150)"/>
<path d="M458.503 311.226L466.153 291.913C466.153 291.913 484.783 304.571 487.847 320.62C484.327 320.88 477.921 321.795 471.652 324.961C470.274 317.383 458.503 311.226 458.503 311.226Z" fill="url(#paint48_linear_37_1150)"/>
<path d="M444.404 270.484L450.75 288.836C450.855 289.14 450.73 289.477 450.449 289.633C448.719 290.589 442.486 293.354 434.976 288.592C434.193 288.096 433.661 287.287 433.542 286.368L431.487 270.483L444.404 270.484Z" fill="url(#paint49_linear_37_1150)"/>
<path d="M430.595 253.489C430.595 253.489 423.627 266.606 424.52 271.906C425.413 277.205 434.05 276.824 441.592 272.52L446.862 258.356L430.595 253.489Z" fill="url(#paint50_linear_37_1150)"/>
<path d="M441.259 265.564C440.952 265.429 440.839 265.053 441.023 264.773C441.581 263.92 442.628 262.18 442.961 260.656C442.961 260.656 444.214 259.854 439.773 258.791C435.332 257.728 428.709 256.078 427.316 252.297C425.959 248.612 431.487 242.704 435.215 246.728C435.456 246.988 435.855 247.015 436.071 246.734C437.004 245.52 439.456 243 442.861 244.528C446.047 245.957 446.406 248.292 446.362 249.469C446.349 249.815 446.658 250.084 446.999 250.019C448.61 249.712 452.475 249.448 454.279 253.413C455.765 256.679 454.799 258.528 453.92 259.432C453.635 259.725 453.76 260.208 454.15 260.327C455.209 260.651 456.576 261.549 456.439 264.029C456.25 267.458 452.416 267.156 451.325 267C451.146 266.974 450.966 267.036 450.845 267.169C449.909 268.205 445.692 272.603 441.129 273.133C440.734 273.179 440.427 272.788 440.557 272.412L442.532 266.671C442.624 266.405 442.496 266.112 442.238 265.998L441.259 265.564Z" fill="url(#paint51_linear_37_1150)"/>
<path d="M440.465 266.379C440.465 266.379 445.427 262.975 445.789 265.842C446.152 268.709 441.321 269.994 438.928 268.926L440.465 266.379Z" fill="url(#paint52_linear_37_1150)"/>
<path d="M427.832 247.586C427.832 247.586 435.739 233.932 449.866 242.09C463.994 250.248 456.352 260.27 456.352 260.27L427.832 247.586Z" fill="url(#paint53_linear_37_1150)"/>
<path d="M456.797 248.305C456.797 248.305 439.775 234.716 431.732 249.321C428.444 247.873 427.832 247.586 427.832 247.586C427.832 247.586 434.975 234.505 444.717 238.91C454.459 243.314 456.814 245.428 456.797 248.305Z" fill="url(#paint54_linear_37_1150)"/>
<path opacity="0.7" d="M437.313 252.23C437.361 252.253 437.419 252.253 437.47 252.227L437.58 252.167C440.114 250.812 444.355 248.543 447.17 249.707C448.528 250.268 449.849 251.115 451.126 251.93C452.028 252.506 452.961 253.103 453.895 253.593C455.168 254.262 456.569 254.977 458.178 255.78L458.182 255.781C458.267 255.822 458.37 255.787 458.413 255.701C458.457 255.614 458.421 255.51 458.334 255.466C456.727 254.664 455.328 253.95 454.059 253.283C453.136 252.8 452.21 252.208 451.316 251.635C450.024 250.809 448.679 249.957 447.304 249.383C444.336 248.154 440.003 250.474 437.415 251.858L437.304 251.917C437.219 251.963 437.187 252.069 437.232 252.155C437.25 252.189 437.279 252.215 437.313 252.23Z" fill="white"/>
<path d="M456.307 262.479L422.738 249.567C422.526 249.486 422.389 249.28 422.395 249.053C422.401 248.827 422.55 248.629 422.765 248.559C424.497 248.001 427.363 247.221 428.51 247.734C432.19 249.381 456.352 260.27 456.352 260.27C456.352 260.27 456.954 260.552 456.307 262.479Z" fill="url(#paint55_linear_37_1150)"/>
<path d="M452.837 289.202C449.714 296.536 444.997 304.441 439.501 312.624L443.124 366.539C451.696 369.536 460.01 371.376 467.653 370.206C468.948 350.953 469.724 333.063 468.874 319.445C468.256 310.138 468.072 300.776 469.23 293.668C467.54 291.913 462.835 290.322 452.837 289.202Z" fill="url(#paint56_linear_37_1150)"/>
<path d="M432.262 286.305C434.066 295.941 436.373 305.235 439.501 312.624L443.124 366.539C439.445 366.781 435.838 366.376 432.252 365.769C428.603 351.276 425.413 332.748 422.384 312.793C422.71 303.431 422.475 294.203 421.401 286.219C425.189 285.556 428.79 285.621 432.262 286.305Z" fill="url(#paint57_linear_37_1150)"/>
<path d="M468.899 347.628H444.782V345.542H469.095L468.899 347.628Z" fill="white"/>
<path d="M468.45 357.191H444.782V353.922H468.683L468.45 357.191Z" fill="white"/>
<path d="M438.948 347.628H428.272L427.871 345.542H438.948V347.628Z" fill="white"/>
<path d="M438.948 357.191H430.242L429.542 353.922H438.948V357.191Z" fill="white"/>
<path d="M442.223 329.398C442.223 329.398 463.14 341.219 470.197 331.126C471.663 329.03 472.013 326.947 471.652 324.961C477.922 321.795 484.327 320.88 487.847 320.62C488.771 325.459 488.282 330.604 485.439 335.805C473.077 358.42 439.455 334.555 439.455 334.555L442.223 329.398Z" fill="url(#paint58_linear_37_1150)"/>
<path d="M445.475 349.202L434.059 309.336C433.93 308.883 433.544 308.554 433.076 308.499C431.008 308.258 425.015 307.58 418.095 306.995C409.76 306.29 400.081 305.719 394.297 306.204C393.474 306.274 392.978 307.143 393.343 307.883C396.632 314.538 410.162 341.606 416.937 350.473C417.161 350.767 417.508 350.939 417.878 350.936L444.364 350.689C445.135 350.682 445.687 349.943 445.475 349.202Z" fill="url(#paint59_linear_37_1150)"/>
<path d="M441.978 334.722C441.978 334.722 443.568 328.183 442.927 325.863C442.285 323.543 441.042 320.56 436.9 321.223C432.757 321.886 427.871 323.631 427.871 323.631C427.871 323.631 428.118 326.653 431.266 325.678L429.314 327.189C429.314 327.189 429.593 329.608 432.252 328.316L430.436 330.319C430.436 330.319 431.578 332.306 433.535 331.032C435.492 329.757 436.429 335.509 441.978 334.722Z" fill="url(#paint60_linear_37_1150)"/>
<path d="M397.556 316.279C395.466 322.16 393.083 328.207 393.311 334.796C393.381 336.793 396.051 341.649 399.073 342.741C401.672 343.681 405.837 341.787 410.123 339.554L397.556 316.279Z" fill="url(#paint61_linear_37_1150)"/>
<path d="M411.301 336.788C410.203 338.445 407.709 338.312 406.69 336.605C405.607 334.79 404.282 332.343 404.106 330.968C403.802 328.596 403.764 325.408 407.499 324.659C411.234 323.909 415.992 323.922 415.992 323.922C415.992 323.922 416.884 326.817 413.874 326.948L416.071 327.711C416.071 327.711 416.717 330.056 414.003 329.73L416.264 330.996C416.264 330.996 416.025 333.224 413.91 332.682C412.475 332.315 412.615 334.806 411.301 336.788Z" fill="url(#paint62_linear_37_1150)"/>
<defs>
<linearGradient id="paint0_linear_37_1150" x1="537.433" y1="616.08" x2="167.247" y2="156.332" gradientUnits="userSpaceOnUse">
<stop stop-color="#DAE3FE"/>
<stop offset="1" stop-color="#E9EFFD"/>
</linearGradient>
<linearGradient id="paint1_linear_37_1150" x1="472.603" y1="9.52421" x2="152.123" y2="704.56" gradientUnits="userSpaceOnUse">
<stop stop-color="#09005D"/>
<stop offset="1" stop-color="#1A0F91"/>
</linearGradient>
<linearGradient id="paint2_linear_37_1150" x1="193.278" y1="452.123" x2="408.809" y2="191.541" gradientUnits="userSpaceOnUse">
<stop stop-color="#FF928E"/>
<stop offset="1" stop-color="#FE7062"/>
</linearGradient>
<linearGradient id="paint3_linear_37_1150" x1="268.344" y1="192.826" x2="-36.392" y2="821.544" gradientUnits="userSpaceOnUse">
<stop stop-color="#E1473D"/>
<stop offset="1" stop-color="#E9605A"/>
</linearGradient>
<linearGradient id="paint4_linear_37_1150" x1="338.679" y1="228.811" x2="33.9426" y2="857.529" gradientUnits="userSpaceOnUse">
<stop stop-color="#E1473D"/>
<stop offset="1" stop-color="#E9605A"/>
</linearGradient>
<linearGradient id="paint5_linear_37_1150" x1="409.013" y1="264.795" x2="104.277" y2="893.513" gradientUnits="userSpaceOnUse">
<stop stop-color="#E1473D"/>
<stop offset="1" stop-color="#E9605A"/>
</linearGradient>
<linearGradient id="paint6_linear_37_1150" x1="479.29" y1="300.777" x2="174.554" y2="929.496" gradientUnits="userSpaceOnUse">
<stop stop-color="#E1473D"/>
<stop offset="1" stop-color="#E9605A"/>
</linearGradient>
<linearGradient id="paint7_linear_37_1150" x1="236.274" y1="180.732" x2="-68.4624" y2="809.45" gradientUnits="userSpaceOnUse">
<stop stop-color="#E1473D"/>
<stop offset="1" stop-color="#E9605A"/>
</linearGradient>
<linearGradient id="paint8_linear_37_1150" x1="306.608" y1="216.716" x2="1.8723" y2="845.435" gradientUnits="userSpaceOnUse">
<stop stop-color="#E1473D"/>
<stop offset="1" stop-color="#E9605A"/>
</linearGradient>
<linearGradient id="paint9_linear_37_1150" x1="376.943" y1="252.7" x2="72.2073" y2="881.418" gradientUnits="userSpaceOnUse">
<stop stop-color="#E1473D"/>
<stop offset="1" stop-color="#E9605A"/>
</linearGradient>
<linearGradient id="paint10_linear_37_1150" x1="447.22" y1="288.684" x2="142.484" y2="917.402" gradientUnits="userSpaceOnUse">
<stop stop-color="#E1473D"/>
<stop offset="1" stop-color="#E9605A"/>
</linearGradient>
<linearGradient id="paint11_linear_37_1150" x1="282.681" y1="202.313" x2="-22.0551" y2="831.031" gradientUnits="userSpaceOnUse">
<stop stop-color="#E1473D"/>
<stop offset="1" stop-color="#E9605A"/>
</linearGradient>
<linearGradient id="paint12_linear_37_1150" x1="234.541" y1="171.222" x2="-76.5962" y2="813.145" gradientUnits="userSpaceOnUse">
<stop stop-color="#E1473D"/>
<stop offset="1" stop-color="#E9605A"/>
</linearGradient>
<linearGradient id="paint13_linear_37_1150" x1="353.016" y1="238.297" x2="48.2796" y2="867.016" gradientUnits="userSpaceOnUse">
<stop stop-color="#E1473D"/>
<stop offset="1" stop-color="#E9605A"/>
</linearGradient>
<linearGradient id="paint14_linear_37_1150" x1="423.351" y1="274.281" x2="118.614" y2="903" gradientUnits="userSpaceOnUse">
<stop stop-color="#E1473D"/>
<stop offset="1" stop-color="#E9605A"/>
</linearGradient>
<linearGradient id="paint15_linear_37_1150" x1="479.353" y1="300.814" x2="170.247" y2="938.548" gradientUnits="userSpaceOnUse">
<stop stop-color="#E1473D"/>
<stop offset="1" stop-color="#E9605A"/>
</linearGradient>
<linearGradient id="paint16_linear_37_1150" x1="205.058" y1="169.056" x2="-99.6778" y2="797.774" gradientUnits="userSpaceOnUse">
<stop stop-color="#E1473D"/>
<stop offset="1" stop-color="#E9605A"/>
</linearGradient>
<linearGradient id="paint17_linear_37_1150" x1="275.393" y1="205.04" x2="-29.3431" y2="833.758" gradientUnits="userSpaceOnUse">
<stop stop-color="#E1473D"/>
<stop offset="1" stop-color="#E9605A"/>
</linearGradient>
<linearGradient id="paint18_linear_37_1150" x1="345.728" y1="241.025" x2="40.9916" y2="869.743" gradientUnits="userSpaceOnUse">
<stop stop-color="#E1473D"/>
<stop offset="1" stop-color="#E9605A"/>
</linearGradient>
<linearGradient id="paint19_linear_37_1150" x1="416.005" y1="277.008" x2="111.269" y2="905.726" gradientUnits="userSpaceOnUse">
<stop stop-color="#E1473D"/>
<stop offset="1" stop-color="#E9605A"/>
</linearGradient>
<linearGradient id="paint20_linear_37_1150" x1="251.466" y1="190.637" x2="-53.27" y2="819.355" gradientUnits="userSpaceOnUse">
<stop stop-color="#E1473D"/>
<stop offset="1" stop-color="#E9605A"/>
</linearGradient>
<linearGradient id="paint21_linear_37_1150" x1="202.657" y1="160.924" x2="-108.479" y2="802.847" gradientUnits="userSpaceOnUse">
<stop stop-color="#E1473D"/>
<stop offset="1" stop-color="#E9605A"/>
</linearGradient>
<linearGradient id="paint22_linear_37_1150" x1="321.801" y1="226.621" x2="17.0647" y2="855.34" gradientUnits="userSpaceOnUse">
<stop stop-color="#E1473D"/>
<stop offset="1" stop-color="#E9605A"/>
</linearGradient>
<linearGradient id="paint23_linear_37_1150" x1="392.135" y1="262.606" x2="87.3994" y2="891.324" gradientUnits="userSpaceOnUse">
<stop stop-color="#E1473D"/>
<stop offset="1" stop-color="#E9605A"/>
</linearGradient>
<linearGradient id="paint24_linear_37_1150" x1="447.681" y1="290.08" x2="138.576" y2="927.813" gradientUnits="userSpaceOnUse">
<stop stop-color="#E1473D"/>
<stop offset="1" stop-color="#E9605A"/>
</linearGradient>
<linearGradient id="paint25_linear_37_1150" x1="384.306" y1="265.084" x2="79.5701" y2="893.802" gradientUnits="userSpaceOnUse">
<stop stop-color="#E1473D"/>
<stop offset="1" stop-color="#E9605A"/>
</linearGradient>
<linearGradient id="paint26_linear_37_1150" x1="219.767" y1="178.714" x2="-84.9688" y2="807.432" gradientUnits="userSpaceOnUse">
<stop stop-color="#E1473D"/>
<stop offset="1" stop-color="#E9605A"/>
</linearGradient>
<linearGradient id="paint27_linear_37_1150" x1="170.293" y1="150.374" x2="-140.843" y2="792.297" gradientUnits="userSpaceOnUse">
<stop stop-color="#E1473D"/>
<stop offset="1" stop-color="#E9605A"/>
</linearGradient>
<linearGradient id="paint28_linear_37_1150" x1="290.102" y1="214.698" x2="-14.634" y2="843.416" gradientUnits="userSpaceOnUse">
<stop stop-color="#E1473D"/>
<stop offset="1" stop-color="#E9605A"/>
</linearGradient>
<linearGradient id="paint29_linear_37_1150" x1="360.437" y1="250.683" x2="55.7007" y2="879.401" gradientUnits="userSpaceOnUse">
<stop stop-color="#E1473D"/>
<stop offset="1" stop-color="#E9605A"/>
</linearGradient>
<linearGradient id="paint30_linear_37_1150" x1="415.528" y1="279.094" x2="106.423" y2="916.828" gradientUnits="userSpaceOnUse">
<stop stop-color="#E1473D"/>
<stop offset="1" stop-color="#E9605A"/>
</linearGradient>
<linearGradient id="paint31_linear_37_1150" x1="285.756" y1="173.622" x2="175.884" y2="155.973" gradientUnits="userSpaceOnUse">
<stop stop-color="#09005D"/>
<stop offset="1" stop-color="#1A0F91"/>
</linearGradient>
<linearGradient id="paint32_linear_37_1150" x1="140.669" y1="292.729" x2="257.503" y2="488.697" gradientUnits="userSpaceOnUse">
<stop stop-color="#09005D"/>
<stop offset="1" stop-color="#1A0F91"/>
</linearGradient>
<linearGradient id="paint33_linear_37_1150" x1="120.522" y1="328.238" x2="506.833" y2="185.261" gradientUnits="userSpaceOnUse">
<stop stop-color="#09005D"/>
<stop offset="1" stop-color="#1A0F91"/>
</linearGradient>
<linearGradient id="paint34_linear_37_1150" x1="176.04" y1="320.54" x2="216.131" y2="320.54" gradientUnits="userSpaceOnUse">
<stop stop-color="#4F52FF"/>
<stop offset="1" stop-color="#4042E2"/>
</linearGradient>
<linearGradient id="paint35_linear_37_1150" x1="44.0435" y1="352.287" x2="450.873" y2="591.188" gradientUnits="userSpaceOnUse">
<stop stop-color="#09005D"/>
<stop offset="1" stop-color="#1A0F91"/>
</linearGradient>
<linearGradient id="paint36_linear_37_1150" x1="181.258" y1="300.833" x2="153.332" y2="562.754" gradientUnits="userSpaceOnUse">
<stop stop-color="#09005D"/>
<stop offset="1" stop-color="#1A0F91"/>
</linearGradient>
<linearGradient id="paint37_linear_37_1150" x1="23.5338" y1="383.437" x2="489.504" y2="657.066" gradientUnits="userSpaceOnUse">
<stop stop-color="#4F52FF"/>
<stop offset="1" stop-color="#4042E2"/>
</linearGradient>
<linearGradient id="paint38_linear_37_1150" x1="167.649" y1="380.604" x2="165.725" y2="459.477" gradientUnits="userSpaceOnUse">
<stop stop-color="#4F52FF"/>
<stop offset="1" stop-color="#4042E2"/>
</linearGradient>
<linearGradient id="paint39_linear_37_1150" x1="166.05" y1="380.931" x2="164.129" y2="459.728" gradientUnits="userSpaceOnUse">
<stop stop-color="#4F52FF"/>
<stop offset="1" stop-color="#4042E2"/>
</linearGradient>
<linearGradient id="paint40_linear_37_1150" x1="373.642" y1="20.4372" x2="295.806" y2="232.62" gradientUnits="userSpaceOnUse">
<stop stop-color="#E1473D"/>
<stop offset="1" stop-color="#E9605A"/>
</linearGradient>
<linearGradient id="paint41_linear_37_1150" x1="183.198" y1="2165.24" x2="176.326" y2="2276.32" gradientUnits="userSpaceOnUse">
<stop stop-color="#09005D"/>
<stop offset="1" stop-color="#1A0F91"/>
</linearGradient>
<linearGradient id="paint42_linear_37_1150" x1="286.059" y1="194.5" x2="260.194" y2="215.197" gradientUnits="userSpaceOnUse">
<stop stop-color="#4F52FF"/>
<stop offset="1" stop-color="#4042E2"/>
</linearGradient>
<linearGradient id="paint43_linear_37_1150" x1="432.279" y1="647.606" x2="427.159" y2="571.325" gradientUnits="userSpaceOnUse">
<stop stop-color="#4F52FF"/>
<stop offset="1" stop-color="#4042E2"/>
</linearGradient>
<linearGradient id="paint44_linear_37_1150" x1="452.837" y1="420.372" x2="427.871" y2="420.372" gradientUnits="userSpaceOnUse">
<stop stop-color="#09005D"/>
<stop offset="1" stop-color="#1A0F91"/>
</linearGradient>
<linearGradient id="paint45_linear_37_1150" x1="468.214" y1="645.193" x2="463.095" y2="568.913" gradientUnits="userSpaceOnUse">
<stop stop-color="#4F52FF"/>
<stop offset="1" stop-color="#4042E2"/>
</linearGradient>
<linearGradient id="paint46_linear_37_1150" x1="469.172" y1="419.435" x2="433.728" y2="419.435" gradientUnits="userSpaceOnUse">
<stop stop-color="#09005D"/>
<stop offset="1" stop-color="#1A0F91"/>
</linearGradient>
<linearGradient id="paint47_linear_37_1150" x1="1570.8" y1="1348.98" x2="1635.51" y2="1407.94" gradientUnits="userSpaceOnUse">
<stop stop-color="#4F52FF"/>
<stop offset="1" stop-color="#4042E2"/>
</linearGradient>
<linearGradient id="paint48_linear_37_1150" x1="1589.18" y1="1328.8" x2="1653.9" y2="1387.76" gradientUnits="userSpaceOnUse">
<stop stop-color="#4F52FF"/>
<stop offset="1" stop-color="#4042E2"/>
</linearGradient>
<linearGradient id="paint49_linear_37_1150" x1="450.787" y1="280.893" x2="431.487" y2="280.893" gradientUnits="userSpaceOnUse">
<stop stop-color="#FEBBBA"/>
<stop offset="1" stop-color="#FF928E"/>
</linearGradient>
<linearGradient id="paint50_linear_37_1150" x1="426.896" y1="268.614" x2="448.117" y2="255.671" gradientUnits="userSpaceOnUse">
<stop stop-color="#FEBBBA"/>
<stop offset="1" stop-color="#FF928E"/>
</linearGradient>
<linearGradient id="paint51_linear_37_1150" x1="459.84" y1="242.647" x2="432.425" y2="264.3" gradientUnits="userSpaceOnUse">
<stop stop-color="#09005D"/>
<stop offset="1" stop-color="#1A0F91"/>
</linearGradient>
<linearGradient id="paint52_linear_37_1150" x1="432.47" y1="273.441" x2="451.563" y2="261.796" gradientUnits="userSpaceOnUse">
<stop stop-color="#FEBBBA"/>
<stop offset="1" stop-color="#FF928E"/>
</linearGradient>
<linearGradient id="paint53_linear_37_1150" x1="452.956" y1="263.391" x2="441.801" y2="247.185" gradientUnits="userSpaceOnUse">
<stop stop-color="#FF928E"/>
<stop offset="1" stop-color="#FE7062"/>
</linearGradient>
<linearGradient id="paint54_linear_37_1150" x1="442.337" y1="247.474" x2="448.992" y2="261.041" gradientUnits="userSpaceOnUse">
<stop stop-color="#FF928E"/>
<stop offset="1" stop-color="#FE7062"/>
</linearGradient>
<linearGradient id="paint55_linear_37_1150" x1="442.163" y1="251.775" x2="465.712" y2="219.01" gradientUnits="userSpaceOnUse">
<stop stop-color="#FF928E"/>
<stop offset="1" stop-color="#FE7062"/>
</linearGradient>
<linearGradient id="paint56_linear_37_1150" x1="474.498" y1="258.927" x2="456.58" y2="329.576" gradientUnits="userSpaceOnUse">
<stop stop-color="#FF928E"/>
<stop offset="1" stop-color="#FE7062"/>
</linearGradient>
<linearGradient id="paint57_linear_37_1150" x1="427.229" y1="334.41" x2="450.011" y2="298.061" gradientUnits="userSpaceOnUse">
<stop stop-color="#FF928E"/>
<stop offset="1" stop-color="#FE7062"/>
</linearGradient>
<linearGradient id="paint58_linear_37_1150" x1="488.272" y1="333.081" x2="439.455" y2="333.081" gradientUnits="userSpaceOnUse">
<stop stop-color="#FEBBBA"/>
<stop offset="1" stop-color="#FF928E"/>
</linearGradient>
<linearGradient id="paint59_linear_37_1150" x1="425.424" y1="303.222" x2="398.582" y2="415.067" gradientUnits="userSpaceOnUse">
<stop stop-color="#09005D"/>
<stop offset="1" stop-color="#1A0F91"/>
</linearGradient>
<linearGradient id="paint60_linear_37_1150" x1="443.079" y1="327.963" x2="427.871" y2="327.963" gradientUnits="userSpaceOnUse">
<stop stop-color="#FEBBBA"/>
<stop offset="1" stop-color="#FF928E"/>
</linearGradient>
<linearGradient id="paint61_linear_37_1150" x1="416.173" y1="288.856" x2="398.255" y2="345.171" gradientUnits="userSpaceOnUse">
<stop stop-color="#FEBBBA"/>
<stop offset="1" stop-color="#FF928E"/>
</linearGradient>
<linearGradient id="paint62_linear_37_1150" x1="407.591" y1="331.636" x2="420.418" y2="326.618" gradientUnits="userSpaceOnUse">
<stop stop-color="#FEBBBA"/>
<stop offset="1" stop-color="#FF928E"/>
</linearGradient>
</defs>
</svg>
