<svg width="241" height="161" viewBox="0 0 241 161" fill="none" xmlns="http://www.w3.org/2000/svg">
<path opacity="0.3" d="M22.881 95.342C22.922 40.148 66.625 -0.0399702 120.538 2.98331e-05C174.449 0.0410298 218.156 40.293 218.115 95.487C218.074 150.682 174.332 155.395 120.421 155.355C66.508 155.315 22.84 150.537 22.881 95.342Z" fill="#D2DAFF"/>
<path d="M212.494 59.682C207.159 59.682 201.823 70.452 197.236 83.924C186.218 57.639 171.531 31.354 156.842 31.354C146.54 31.354 136.24 44.292 127.204 61.084C119.68 37.512 110.64 17.541 101.598 17.541C87.581 17.541 73.566 65.521 65.203 100.537C58.173 72.382 47.369 37.957 36.562 37.957C18.284 37.957 0 136.487 0 136.487H57.459H73.124H98.09H145.734H183.994H215.595H240.994C240.994 136.487 226.743 59.682 212.494 59.682Z" fill="#D2DAFF"/>
<path d="M240.641 144.173C240.641 153.229 186.822 160.57 120.432 160.57C54.042 160.57 0.223022 153.228 0.223022 144.173L0.00201416 136.487H240.994L240.641 144.173Z" fill="#D7EFFF"/>
<path opacity="0.65" d="M204.641 141.907C204.641 146.753 166.903 150.68 120.349 150.68C73.796 150.68 36.058 146.752 36.058 141.907C36.058 137.062 73.796 133.135 120.349 133.135C166.902 133.134 204.641 137.062 204.641 141.907Z" fill="#D7EFFF"/>
<path d="M41.213 141.707C44.14 118.572 48.185 92.8981 63.082 75.4901C76.827 57.7651 101.304 50.3831 118.84 50.3831C136.378 50.3831 160.853 57.7661 174.598 75.4901C189.497 92.8981 193.541 118.572 196.468 141.707C144.717 141.707 92.963 141.707 41.213 141.707Z" fill="#DEFFFB"/>
<mask id="mask0_27_927" style="mask-type:luminance" maskUnits="userSpaceOnUse" x="41" y="50" width="156" height="92">
<path d="M41.213 141.707C44.14 118.572 48.185 92.8981 63.082 75.4901C76.827 57.7651 101.304 50.3831 118.84 50.3831C136.378 50.3831 160.853 57.7661 174.598 75.4901C189.497 92.8981 193.541 118.572 196.468 141.707C144.717 141.707 92.963 141.707 41.213 141.707Z" fill="white"/>
</mask>
<g mask="url(#mask0_27_927)">
<path d="M118.84 54.527C94.654 54.527 71.914 54.103 54.81 53.334C27.733 52.118 27.733 50.709 27.733 49.867H28.917C28.917 49.737 28.856 49.653 28.835 49.634C30.777 51.425 67.408 53.344 118.841 53.344C170.276 53.344 206.905 51.425 208.849 49.634C208.827 49.654 208.766 49.738 208.766 49.867H209.95C209.95 50.709 209.95 52.118 182.874 53.334C165.767 54.103 143.027 54.527 118.84 54.527Z" fill="#A6E0D9"/>
<path d="M118.84 66.362C94.656 66.362 71.914 65.938 54.81 65.169C27.733 63.954 27.733 62.544 27.733 61.702H28.917C28.917 61.572 28.856 61.488 28.835 61.469C30.778 63.259 67.409 65.179 118.841 65.179C170.275 65.179 206.904 63.259 208.849 61.469C208.827 61.489 208.766 61.573 208.766 61.702H209.95C209.95 62.544 209.95 63.954 182.874 65.169C165.766 65.938 143.027 66.362 118.84 66.362Z" fill="#A6E0D9"/>
<path d="M118.84 78.197C94.656 78.197 71.914 77.774 54.81 77.005C27.733 75.788 27.733 74.378 27.733 73.537H28.917C28.917 73.407 28.856 73.323 28.835 73.304C30.778 75.095 67.409 77.014 118.841 77.014C170.275 77.014 206.904 75.095 208.849 73.304C208.827 73.324 208.766 73.408 208.766 73.537H209.95C209.95 74.378 209.95 75.788 182.874 77.005C165.766 77.774 143.027 78.197 118.84 78.197Z" fill="#A6E0D9"/>
<path d="M118.84 90.0321C94.656 90.0321 71.914 89.6101 54.81 88.8411C27.733 87.6241 27.733 86.2141 27.733 85.3721H28.917C28.917 85.2431 28.856 85.1591 28.835 85.1401C30.778 86.9311 67.409 88.8491 118.841 88.8491C170.275 88.8491 206.904 86.9311 208.849 85.1401C208.827 85.1601 208.766 85.2441 208.766 85.3721H209.95C209.95 86.2141 209.95 87.6241 182.874 88.8411C165.766 89.6101 143.027 90.0321 118.84 90.0321Z" fill="#A6E0D9"/>
<path d="M118.84 101.866C94.656 101.866 71.914 101.443 54.81 100.674C27.733 99.4581 27.733 98.0481 27.733 97.2071H28.917C28.917 97.0771 28.856 96.9921 28.835 96.9731C30.778 98.7651 67.409 100.684 118.841 100.684C170.275 100.684 206.904 98.7651 208.849 96.9731C208.827 96.9931 208.766 97.0781 208.766 97.2071H209.95C209.95 98.0481 209.95 99.4581 182.874 100.674C165.766 101.444 143.027 101.866 118.84 101.866Z" fill="#A6E0D9"/>
<path d="M118.84 113.701C94.656 113.701 71.914 113.279 54.81 112.51C27.733 111.293 27.733 109.883 27.733 109.042H28.917C28.917 108.912 28.856 108.828 28.835 108.809C30.778 110.6 67.409 112.519 118.841 112.519C170.275 112.519 206.904 110.6 208.849 108.809C208.827 108.829 208.766 108.913 208.766 109.042H209.95C209.95 109.883 209.95 111.293 182.874 112.51C165.766 113.28 143.027 113.701 118.84 113.701Z" fill="#A6E0D9"/>
<path d="M118.84 125.537C94.656 125.537 71.914 125.114 54.81 124.344C27.733 123.129 27.733 121.719 27.733 120.877H28.917C28.917 120.748 28.856 120.662 28.835 120.643C30.778 122.436 67.409 124.354 118.841 124.354C170.275 124.354 206.904 122.436 208.849 120.643C208.827 120.663 208.766 120.748 208.766 120.877H209.95C209.95 121.719 209.95 123.129 182.874 124.344C165.766 125.115 143.027 125.537 118.84 125.537Z" fill="#A6E0D9"/>
<path d="M118.84 137.373C94.656 137.373 71.914 136.949 54.81 136.18C27.733 134.964 27.733 133.554 27.733 132.713H28.917C28.917 132.583 28.856 132.498 28.835 132.479C30.778 134.27 67.409 136.19 118.841 136.19C170.275 136.19 206.904 134.27 208.849 132.479C208.827 132.499 208.766 132.584 208.766 132.713H209.95C209.95 133.554 209.95 134.964 182.874 136.18C165.766 136.95 143.027 137.373 118.84 137.373Z" fill="#A6E0D9"/>
<path d="M74.86 89.108L73.743 88.723C75.241 84.376 76.9701 80.404 78.8751 76.916L79.916 77.484C78.041 80.914 76.34 84.825 74.86 89.108Z" fill="#A6E0D9"/>
<path d="M69.244 112.524L68.077 112.335C68.772 108.064 69.527 104.202 70.383 100.527L71.536 100.796C70.684 104.444 69.936 108.281 69.244 112.524Z" fill="#A6E0D9"/>
<path d="M66.38 136.065L65.201 135.954C65.626 131.417 66.0171 127.665 66.4351 124.145L67.6111 124.284C67.1941 127.793 66.804 131.536 66.38 136.065Z" fill="#A6E0D9"/>
<path d="M171.302 136.065C170.879 131.551 170.488 127.807 170.072 124.285L171.248 124.147C171.665 127.678 172.057 131.43 172.48 135.954L171.302 136.065Z" fill="#A6E0D9"/>
<path d="M168.437 112.524C167.743 108.278 166.995 104.44 166.145 100.792L167.297 100.524C168.151 104.198 168.905 108.061 169.606 112.336L168.437 112.524Z" fill="#A6E0D9"/>
<path d="M162.82 89.1061C161.338 84.8201 159.637 80.9091 157.762 77.4831L158.801 76.9141C160.706 80.3971 162.434 84.3701 163.939 88.7211L162.82 89.1061Z" fill="#A6E0D9"/>
<path d="M149.9 65.912C145.476 60.995 140.009 57.0191 134.093 54.4141L134.569 53.3311C140.64 56.0031 146.244 60.08 150.779 65.121L149.9 65.912Z" fill="#A6E0D9"/>
<path d="M87.785 65.91L86.9041 65.1171C91.4421 60.0761 97.047 56.0011 103.11 53.3311L103.586 54.4141C97.6751 57.0171 92.211 60.992 87.785 65.91Z" fill="#A6E0D9"/>
<path d="M104.195 89.4511L103.018 89.3141C103.522 84.9541 104.104 80.9621 104.748 77.4551L105.911 77.6671C105.274 81.1511 104.696 85.1161 104.195 89.4511Z" fill="#A6E0D9"/>
<path d="M102.296 113.071L101.114 113.007C101.344 108.796 101.603 104.812 101.889 101.165L103.068 101.257C102.785 104.895 102.525 108.869 102.296 113.071Z" fill="#A6E0D9"/>
<path d="M136.348 136.719C136.226 132.809 136.092 128.85 135.934 124.893L137.118 124.846C137.274 128.806 137.411 132.769 137.531 136.682L136.348 136.719Z" fill="#A6E0D9"/>
<path d="M135.385 113.071C135.158 108.912 134.9 104.959 134.618 101.323L135.797 101.23C136.081 104.875 136.34 108.838 136.568 113.006L135.385 113.071Z" fill="#A6E0D9"/>
<path d="M133.487 89.45C132.987 85.132 132.412 81.183 131.776 77.712L132.94 77.5C133.579 80.996 134.16 84.97 134.663 89.314L133.487 89.45Z" fill="#A6E0D9"/>
<path d="M129.076 65.912C127.57 60.933 125.708 56.916 123.697 54.291L124.633 53.571C126.735 56.306 128.66 60.4551 130.209 65.5691L129.076 65.912Z" fill="#A6E0D9"/>
<path d="M108.603 65.9131L107.471 65.5701C109.019 60.4551 110.865 56.4571 112.958 53.6831L113.903 54.3971C111.923 57.0211 110.09 61.0021 108.603 65.9131Z" fill="#A6E0D9"/>
</g>
<mask id="mask1_27_927" style="mask-type:luminance" maskUnits="userSpaceOnUse" x="41" y="50" width="156" height="92">
<path d="M41.213 141.707C44.14 118.572 48.185 92.8981 63.082 75.4901C76.827 57.7651 101.304 50.3831 118.84 50.3831C136.378 50.3831 160.853 57.7661 174.598 75.4901C189.497 92.8981 193.541 118.572 196.468 141.707C144.717 141.707 92.963 141.707 41.213 141.707Z" fill="white"/>
</mask>
<g mask="url(#mask1_27_927)">
<path d="M91.616 77.4909L90.511 77.0649C90.746 76.4569 90.986 75.8549 91.232 75.2639C92.566 71.7209 94.174 68.4229 96.006 65.4829L97.011 66.1099C95.221 68.9839 93.646 72.2099 92.331 75.6979C92.082 76.2989 91.847 76.8909 91.616 77.4909Z" fill="#A6E0D9"/>
<path d="M85.649 101.345L84.479 101.159C85.185 96.762 85.999 92.655 86.89 88.957L88.041 89.235C87.155 92.905 86.35 96.98 85.649 101.345Z" fill="#A6E0D9"/>
<path d="M155.926 141.743C155.817 139.954 155.703 138.149 155.581 136.332L156.766 136.256C156.884 138.072 156.997 139.88 157.108 141.671L155.926 141.743Z" fill="#A6E0D9"/>
<path d="M154.74 124.741C154.387 120.479 154.018 116.647 153.61 113.024L154.786 112.893C155.196 116.525 155.568 120.369 155.918 124.643L154.74 124.741Z" fill="#A6E0D9"/>
<path d="M151.955 100.871C151.288 96.7781 150.525 92.9321 149.687 89.4361L150.839 89.1621C151.682 92.6831 152.45 96.5581 153.123 100.68L151.955 100.871Z" fill="#A6E0D9"/>
<path d="M146.157 77.737C145.897 77.051 145.63 76.378 145.356 75.717C144.022 72.171 142.428 68.913 140.612 66.015L141.613 65.386C143.472 68.351 145.1 71.681 146.456 75.282C146.728 75.936 147.001 76.622 147.265 77.318L146.157 77.737Z" fill="#A6E0D9"/>
<path d="M108.532 54.203L107.919 53.191C111.566 50.967 115.345 49.791 118.84 49.791H118.842C122.265 49.791 125.966 50.922 129.545 53.061L128.938 54.077C125.542 52.049 122.051 50.975 118.841 50.975H118.839C115.56 50.975 111.998 52.092 108.532 54.203Z" fill="#A6E0D9"/>
</g>
<mask id="mask2_27_927" style="mask-type:luminance" maskUnits="userSpaceOnUse" x="41" y="50" width="156" height="92">
<path d="M41.213 141.707C44.14 118.572 48.185 92.8981 63.082 75.4901C76.827 57.7651 101.304 50.3831 118.84 50.3831C136.378 50.3831 160.853 57.7661 174.598 75.4901C189.497 92.8981 193.541 118.572 196.468 141.707C144.717 141.707 92.963 141.707 41.213 141.707Z" fill="white"/>
</mask>
<g mask="url(#mask2_27_927)">
<path d="M186.214 141.772C185.98 139.632 185.733 137.471 185.472 135.295L186.647 135.154C186.91 137.334 187.156 139.498 187.39 141.642L186.214 141.772Z" fill="#A6E0D9"/>
</g>
<mask id="mask3_27_927" style="mask-type:luminance" maskUnits="userSpaceOnUse" x="41" y="50" width="156" height="92">
<path d="M41.213 141.707C44.14 118.572 48.185 92.8981 63.082 75.4901C76.827 57.7651 101.304 50.3831 118.84 50.3831C136.378 50.3831 160.853 57.7661 174.598 75.4901C189.497 92.8981 193.541 118.572 196.468 141.707C144.717 141.707 92.963 141.707 41.213 141.707Z" fill="white"/>
</mask>
<g mask="url(#mask3_27_927)">
<path d="M183.901 123.623C183.262 119.444 182.588 115.685 181.844 112.127L183.001 111.885C183.75 115.465 184.428 119.245 185.07 123.444L183.901 123.623Z" fill="#A6E0D9"/>
</g>
<mask id="mask4_27_927" style="mask-type:luminance" maskUnits="userSpaceOnUse" x="41" y="50" width="156" height="92">
<path d="M41.213 141.707C44.14 118.572 48.185 92.8981 63.082 75.4901C76.827 57.7651 101.304 50.3831 118.84 50.3831C136.378 50.3831 160.853 57.7661 174.598 75.4901C189.497 92.8981 193.541 118.572 196.468 141.707C144.717 141.707 92.963 141.707 41.213 141.707Z" fill="white"/>
</mask>
<g mask="url(#mask4_27_927)">
<path d="M178.926 100.487C177.677 96.3029 176.248 92.3909 174.685 88.8569L175.767 88.3779C177.352 91.9559 178.797 95.9159 180.061 100.146L178.926 100.487Z" fill="#A6E0D9"/>
<path d="M168.294 77.379C167.932 76.86 167.563 76.35 167.185 75.844C164.661 72.127 161.619 68.726 158.136 65.716L158.909 64.822C162.471 67.898 165.581 71.376 168.147 75.156C168.516 75.648 168.892 76.172 169.263 76.701L168.294 77.379Z" fill="#A6E0D9"/>
<path d="M69.4341 77.311L68.4661 76.632C68.8201 76.127 69.1811 75.627 69.5501 75.135C72.1271 71.336 75.2721 67.828 78.8801 64.729L79.6521 65.625C76.1221 68.657 73.0481 72.088 70.5121 75.822C70.1361 76.328 69.7821 76.816 69.4341 77.311Z" fill="#A6E0D9"/>
<path d="M58.751 100.5L57.618 100.159C58.899 95.8711 60.3631 91.8671 61.9701 88.2581L63.05 88.7401C61.466 92.3011 60.018 96.2581 58.751 100.5Z" fill="#A6E0D9"/>
<path d="M53.7711 123.674L52.6011 123.495C53.2461 119.269 53.9261 115.459 54.6851 111.842L55.8431 112.086C55.0931 115.682 54.4131 119.472 53.7711 123.674Z" fill="#A6E0D9"/>
<path d="M51.466 141.772L50.29 141.643C50.517 139.582 50.7521 137.504 51.0031 135.411L52.178 135.553C51.928 137.641 51.693 139.717 51.466 141.772Z" fill="#A6E0D9"/>
</g>
<mask id="mask5_27_927" style="mask-type:luminance" maskUnits="userSpaceOnUse" x="41" y="50" width="156" height="92">
<path d="M41.213 141.707C44.14 118.572 48.185 92.8981 63.082 75.4901C76.827 57.7651 101.304 50.3831 118.84 50.3831C136.378 50.3831 160.853 57.7661 174.598 75.4901C189.497 92.8981 193.541 118.572 196.468 141.707C144.717 141.707 92.963 141.707 41.213 141.707Z" fill="white"/>
</mask>
<g mask="url(#mask5_27_927)">
<path d="M119.433 89.1001H118.249V101.329H119.433V89.1001Z" fill="#A6E0D9"/>
<path d="M119.433 65.771H118.249V77.462H119.433V65.771Z" fill="#A6E0D9"/>
<path d="M119.433 53.786H118.249C118.249 51.688 118.249 50.475 118.249 50.396L118.838 50.388L119.105 49.854C119.433 50.019 119.433 50.019 119.433 53.786Z" fill="#A6E0D9"/>
</g>
<path d="M121.586 69.323C121.888 69.575 122.302 69.585 122.678 69.587C123.372 69.591 124.135 69.409 124.728 69.038C125.183 68.753 125.123 68.411 124.559 68.408C124.364 68.407 124.45 68.449 124.317 68.339C123.908 67.997 122.863 68.357 122.452 68.505C122.279 68.567 121.185 68.989 121.586 69.323Z" fill="#A6E0D9"/>
<path d="M170.016 104.875C170.199 104.876 170.182 104.93 170.083 104.885C170.738 105.184 171.555 105.039 172.145 104.649C172.538 104.391 173.017 103.682 172.363 103.383C171.956 103.197 171.55 103.065 171.098 103.061C170.426 103.054 169.568 103.262 169.195 103.887C168.845 104.475 169.491 104.869 170.016 104.875Z" fill="#A6E0D9"/>
<path d="M114.115 92.655C114.298 92.657 114.281 92.711 114.182 92.665C114.837 92.965 115.654 92.819 116.243 92.43C116.636 92.171 117.115 91.463 116.461 91.163C116.054 90.977 115.648 90.8449 115.196 90.8409C114.524 90.8349 113.666 91.0429 113.293 91.6669C112.943 92.2539 113.59 92.65 114.115 92.655Z" fill="#A6E0D9"/>
<path d="M95.731 75.209C95.914 75.21 95.897 75.264 95.798 75.219C96.453 75.518 97.27 75.3729 97.86 74.9829C98.253 74.7249 98.732 74.016 98.078 73.717C97.671 73.531 97.265 73.3989 96.813 73.3949C96.141 73.3879 95.283 73.5959 94.91 74.2209C94.559 74.8089 95.206 75.203 95.731 75.209Z" fill="#A6E0D9"/>
<path d="M72.951 80.3991C73.134 80.4011 73.117 80.4561 73.018 80.4101C73.673 80.7101 74.49 80.5631 75.079 80.1751C75.472 79.9151 75.9511 79.2081 75.2971 78.9081C74.8901 78.7221 74.484 78.5901 74.032 78.5851C73.36 78.5791 72.5021 78.7881 72.1291 79.4121C71.7791 79.9981 72.426 80.3951 72.951 80.3991Z" fill="#A6E0D9"/>
<path d="M61.505 132.964C61.688 132.965 61.671 133.02 61.572 132.975C62.227 133.274 63.0441 133.128 63.6331 132.739C64.0261 132.48 64.505 131.772 63.851 131.473C63.444 131.285 63.0381 131.155 62.5861 131.15C61.9141 131.143 61.056 131.352 60.683 131.977C60.333 132.564 60.979 132.959 61.505 132.964Z" fill="#A6E0D9"/>
<path d="M57.915 115.374C58.098 115.375 58.081 115.43 57.982 115.385C58.637 115.684 59.4541 115.538 60.0431 115.149C60.4361 114.89 60.915 114.182 60.261 113.883C59.854 113.695 59.4481 113.565 58.9961 113.56C58.3241 113.553 57.466 113.762 57.093 114.387C56.743 114.974 57.39 115.369 57.915 115.374Z" fill="#A6E0D9"/>
<path d="M175.4 117.618C175.527 117.778 175.607 117.959 175.734 118.118C176.196 118.702 177.1 118.665 177.711 118.366C178.229 118.112 178.845 117.403 178.381 116.817C178.254 116.658 178.174 116.477 178.047 116.317C177.584 115.735 176.682 115.77 176.07 116.071C175.554 116.324 174.936 117.034 175.4 117.618Z" fill="#A6E0D9"/>
<path d="M174.15 132.426C174.125 132.449 174.098 132.471 174.072 132.493C174.228 132.43 174.385 132.368 174.539 132.304C174.879 132.251 174.231 132.327 174.157 132.335C173.543 132.399 173.412 132.91 173.835 133.32C174.346 133.813 175.154 134.049 175.853 133.977C176.078 133.954 176.493 133.94 176.781 133.691C177.578 133.003 174.91 131.77 174.15 132.426Z" fill="#A6E0D9"/>
<path d="M177.436 84.4691C177.411 84.4911 177.384 84.5141 177.358 84.5361C177.514 84.4731 177.671 84.4111 177.825 84.3481C178.165 84.2951 177.517 84.3711 177.443 84.3791C176.829 84.4431 176.698 84.9541 177.121 85.3641C177.632 85.8571 178.44 86.0931 179.138 86.0211C179.363 85.9981 179.778 85.9841 180.066 85.7351C180.864 85.0461 178.196 83.8131 177.436 84.4691Z" fill="#A6E0D9"/>
<path d="M141.877 109.565C142.331 109.772 142.788 109.776 143.279 109.779C143.899 109.782 144.773 109.523 145.212 109.061C145.686 108.563 144.799 108.491 144.502 108.49C144.62 108.491 144.205 108.355 144.238 108.37C143.675 108.114 142.708 108.461 142.206 108.716C141.855 108.893 141.299 109.302 141.877 109.565Z" fill="#A6E0D9"/>
<path d="M136.211 80.7681C136.665 80.9741 137.122 80.9791 137.613 80.9811C138.233 80.9851 139.107 80.7251 139.546 80.2641C140.02 79.7641 139.133 79.694 138.836 79.692C138.954 79.692 138.539 79.5571 138.572 79.5731C138.008 79.3161 137.042 79.6631 136.54 79.9171C136.189 80.0941 135.633 80.5041 136.211 80.7681Z" fill="#A6E0D9"/>
<path d="M88.4821 122.568C88.9361 122.774 89.3931 122.779 89.8841 122.782C90.5041 122.785 91.3781 122.526 91.8171 122.064C92.2911 121.565 91.4041 121.494 91.1071 121.493C91.2251 121.493 90.8101 121.358 90.8431 121.373C90.2791 121.116 89.313 121.464 88.811 121.718C88.461 121.895 87.9041 122.305 88.4821 122.568Z" fill="#A6E0D9"/>
<g opacity="0.75">
<path d="M166.525 92.96C166.827 93.211 167.241 93.221 167.617 93.223C168.311 93.227 169.074 93.045 169.667 92.674C170.122 92.389 170.062 92.047 169.498 92.045C169.303 92.043 169.389 92.086 169.256 91.975C168.847 91.633 167.802 91.994 167.391 92.142C167.219 92.203 166.125 92.626 166.525 92.96Z" fill="#A6E0D9"/>
<path d="M64.54 110.601C64.723 110.602 64.706 110.657 64.607 110.612C65.262 110.911 66.0791 110.765 66.6681 110.376C67.0611 110.117 67.54 109.409 66.886 109.11C66.479 108.922 66.0731 108.792 65.6211 108.787C64.9491 108.78 64.091 108.989 63.718 109.614C63.368 110.2 64.015 110.596 64.54 110.601Z" fill="#A6E0D9"/>
<path d="M46.3531 128.091C46.5361 128.092 46.519 128.147 46.42 128.102C47.075 128.401 47.8921 128.255 48.4821 127.866C48.8751 127.607 49.354 126.899 48.7 126.6C48.293 126.412 47.8871 126.282 47.4351 126.277C46.7631 126.27 45.905 126.479 45.532 127.104C45.182 127.691 45.8281 128.086 46.3531 128.091Z" fill="#A6E0D9"/>
<path d="M160.505 121.448C160.515 121.415 160.525 121.383 160.534 121.349C160.437 121.487 160.341 121.624 160.245 121.761C159.989 121.99 160.49 121.573 160.549 121.526C161.029 121.139 160.86 120.639 160.281 120.526C159.584 120.39 158.777 120.633 158.232 121.075C158.056 121.218 157.715 121.456 157.61 121.821C157.317 122.834 160.226 122.412 160.505 121.448Z" fill="#A6E0D9"/>
<path d="M98.2481 87.3199C98.7021 87.5259 99.1591 87.5309 99.6501 87.5339C100.27 87.5369 101.144 87.2779 101.583 86.8159C102.057 86.3169 101.17 86.2459 100.873 86.2449C100.991 86.2449 100.576 86.1099 100.609 86.1249C100.046 85.8679 99.0791 86.2159 98.5771 86.4699C98.2261 86.6469 97.6701 87.0569 98.2481 87.3199Z" fill="#A6E0D9"/>
<path d="M138.775 104.695C138.831 104.695 138.886 104.695 138.942 104.695C139.631 104.695 140.397 104.498 140.992 104.146C141.093 104.086 141.386 103.919 141.34 103.747C141.293 103.574 140.955 103.574 140.839 103.574C140.783 103.574 140.728 103.574 140.672 103.574C139.983 103.574 139.217 103.771 138.622 104.123C138.522 104.183 138.229 104.35 138.274 104.522C138.321 104.695 138.659 104.695 138.775 104.695Z" fill="#A6E0D9"/>
<path d="M123.998 71.049C124.054 71.049 124.109 71.049 124.165 71.049C124.855 71.049 125.62 70.852 126.215 70.5C126.316 70.439 126.609 70.273 126.563 70.1C126.516 69.928 126.178 69.928 126.062 69.928C126.006 69.928 125.951 69.928 125.895 69.928C125.206 69.928 124.44 70.125 123.845 70.477C123.745 70.536 123.451 70.704 123.497 70.876C123.544 71.049 123.882 71.049 123.998 71.049Z" fill="#A6E0D9"/>
</g>
<path d="M91.198 136.227C92.241 125.522 93.682 113.643 98.987 105.588C103.882 97.3882 112.565 93.9722 118.84 93.9722C125.114 93.9722 133.799 97.3882 138.694 105.588C143.998 113.643 145.437 125.522 146.48 136.227V148.396H91.198V136.227Z" fill="#C4F2EE"/>
<mask id="mask6_27_927" style="mask-type:luminance" maskUnits="userSpaceOnUse" x="91" y="93" width="56" height="56">
<path d="M91.198 136.227C92.241 125.522 93.682 113.643 98.987 105.588C103.882 97.3882 112.565 93.9722 118.84 93.9722C125.114 93.9722 133.799 97.3882 138.694 105.588C143.998 113.643 145.437 125.522 146.48 136.227V148.396H91.198V136.227Z" fill="white"/>
</mask>
<g mask="url(#mask6_27_927)">
<path d="M91.198 142.86C92.241 132.155 93.682 120.276 98.987 112.221C103.882 104.021 112.565 100.605 118.84 100.605C125.114 100.605 133.799 104.021 138.694 112.221C143.998 120.276 145.437 132.155 146.48 142.86V155.029H91.198V142.86Z" stroke="#A6E0D9" stroke-width="2" stroke-miterlimit="10" stroke-linecap="round" stroke-linejoin="round"/>
</g>
<mask id="mask7_27_927" style="mask-type:luminance" maskUnits="userSpaceOnUse" x="91" y="93" width="56" height="56">
<path d="M91.198 136.227C92.241 125.522 93.682 113.643 98.987 105.588C103.882 97.3882 112.565 93.9722 118.84 93.9722C125.114 93.9722 133.799 97.3882 138.694 105.588C143.998 113.643 145.437 125.522 146.48 136.227V148.396H91.198V136.227Z" fill="white"/>
</mask>
<g mask="url(#mask7_27_927)">
<path d="M105.331 96.6453L107.187 103.756" stroke="#A6E0D9" stroke-width="2" stroke-miterlimit="10" stroke-linecap="round" stroke-linejoin="round"/>
</g>
<mask id="mask8_27_927" style="mask-type:luminance" maskUnits="userSpaceOnUse" x="91" y="93" width="56" height="56">
<path d="M91.198 136.227C92.241 125.522 93.682 113.643 98.987 105.588C103.882 97.3882 112.565 93.9722 118.84 93.9722C125.114 93.9722 133.799 97.3882 138.694 105.588C143.998 113.643 145.437 125.522 146.48 136.227V148.396H91.198V136.227Z" fill="white"/>
</mask>
<g mask="url(#mask8_27_927)">
<path d="M131.812 96.6453L129.956 103.756" stroke="#A6E0D9" stroke-width="2" stroke-miterlimit="10" stroke-linecap="round" stroke-linejoin="round"/>
</g>
<mask id="mask9_27_927" style="mask-type:luminance" maskUnits="userSpaceOnUse" x="91" y="93" width="56" height="56">
<path d="M91.198 136.227C92.241 125.522 93.682 113.643 98.987 105.588C103.882 97.3882 112.565 93.9722 118.84 93.9722C125.114 93.9722 133.799 97.3882 138.694 105.588C143.998 113.643 145.437 125.522 146.48 136.227V148.396H91.198V136.227Z" fill="white"/>
</mask>
<g mask="url(#mask9_27_927)">
<path d="M118.911 100.534V107.715" stroke="#A6E0D9" stroke-width="2" stroke-miterlimit="10" stroke-linecap="round" stroke-linejoin="round"/>
</g>
<path d="M91.198 148.396C92.241 137.692 93.682 125.813 98.987 117.758C103.882 109.558 112.565 106.142 118.84 106.142C125.114 106.142 133.799 109.558 138.694 117.758C143.998 125.813 145.437 137.692 146.48 148.396C128.054 148.396 109.626 148.396 91.198 148.396Z" fill="#DEFFFB"/>
<path d="M101.72 148.205C102.364 141.574 103.257 134.215 106.543 129.226C109.572 124.148 114.951 122.031 118.839 122.031C122.725 122.031 128.106 124.148 131.138 129.226C134.421 134.214 135.316 141.574 135.96 148.205C124.546 148.205 113.132 148.205 101.72 148.205Z" fill="#428C87"/>
</svg>
