<?xml version="1.0" encoding="UTF-8"?>
<svg id="Layer_1" data-name="Layer 1" xmlns="http://www.w3.org/2000/svg" viewBox="0 0 205.67 197.58">
  <defs>
    <style>
      .cls-1 {
        fill: #a02a68;
      }
    </style>
  </defs>
  <path class="cls-1" d="M105.21,183.86c-46.91,0-85.07-38.16-85.07-85.07S58.31,13.73,105.21,13.73s85.07,38.16,85.07,85.07-38.16,85.07-85.07,85.07Zm0-166c-44.63,0-80.93,36.31-80.93,80.93s36.31,80.93,80.93,80.93,80.93-36.31,80.93-80.93S149.84,17.86,105.21,17.86Z"/>
  <path class="cls-1" d="M105.21,176.68c-42.95,0-77.88-34.94-77.88-77.88S62.27,20.91,105.21,20.91s77.88,34.94,77.88,77.88-34.94,77.88-77.88,77.88Zm0-153.47c-41.68,0-75.59,33.91-75.59,75.59s33.91,75.59,75.59,75.59,75.59-33.91,75.59-75.59S146.89,23.2,105.21,23.2Z"/>
  <g>
    <path class="cls-1" d="M73.45,107.44c-2.14,0-4.27,.11-6.35,.32h12.75c-2.1-.21-4.23-.32-6.39-.32Zm30.83-65.17H61.6v61.39c3.84-.69,7.8-1.05,11.85-1.05,5.17,0,10.2,.59,15.02,1.7,3.69,.85,7.26,2.01,10.69,3.45h5.11c5.48,0,10.68-1,15.39-2.81,.21-.08,.41-.16,.61-.24,.27-.11,.54-.22,.81-.34,12.52-5.35,21.12-16.49,21.12-29.36h0c0-18.09-16.98-32.75-37.93-32.75Zm-15.8,23.2h16.78c8.24,0,14.92,5.76,14.92,12.87,0,3.55-1.67,6.78-4.37,9.11-2.7,2.33-6.43,3.77-10.55,3.77h-16.78v-25.75Z"/>
    <path class="cls-1" d="M121.08,105.29c-.27-.2-.54-.39-.81-.58-8.07-5.78-17.3-10.1-27.26-12.58h-4.54v-.99c-4.87-.91-9.89-1.39-15.02-1.39-4.03,0-7.98,.29-11.85,.86v13.96c3.84-.69,7.8-1.05,11.85-1.05,5.17,0,10.2,.59,15.02,1.7,3.69,.85,7.26,2.01,10.69,3.45,18.94,7.94,33.33,24.39,38.1,44.41h14.38c-3.78-19.45-14.96-36.36-30.56-47.8Z"/>
    <path class="cls-1" d="M89.88,109.6c-.47-.13-.94-.25-1.41-.36-.83-.2-1.66-.39-2.5-.56-2.01-.4-4.05-.71-6.13-.92-2.1-.21-4.23-.32-6.39-.32s-4.27,.11-6.35,.32c-1.86,.18-3.69,.45-5.49,.79v14.11c3.79-.94,7.76-1.44,11.85-1.44,5.24,0,10.29,.82,15.02,2.34,14.39,4.61,25.82,15.66,30.74,29.65h14.69c-5.62-21.14-22.53-37.87-44.02-43.61Z"/>
    <path class="cls-1" d="M88.47,128.54c-4.67-1.73-9.74-2.68-15.02-2.68-4.11,0-8.09,.57-11.85,1.63v14.65c3.61-1.61,7.62-2.51,11.85-2.51,5.51,0,10.65,1.53,15.02,4.17,3.84,2.33,7.08,5.51,9.43,9.28h15.58c-4.31-11.3-13.48-20.3-25.01-24.55Z"/>
  </g>
</svg>